<mxfile host="65bd71144e">
    <diagram id="DCPYSLaJru3v3oGsg4U5" name="Page-1">
        <mxGraphModel dx="1072" dy="432" grid="1" gridSize="10" guides="1" tooltips="1" connect="1" arrows="1" fold="1" page="1" pageScale="1" pageWidth="827" pageHeight="1169" math="0" shadow="0">
            <root>
                <mxCell id="0"/>
                <mxCell id="1" parent="0"/>
                <mxCell id="2" value="" style="shape=table;startSize=0;container=1;collapsible=1;childLayout=tableLayout;fixedRows=1;rowLines=0;fontStyle=0;align=center;resizeLast=1;strokeColor=light-dark(#001DBC,#000000);fillColor=#0050ef;collapsible=0;fontColor=#ffffff;" parent="1" vertex="1">
                    <mxGeometry x="52.13" y="10" width="386.25" height="60" as="geometry"/>
                </mxCell>
                <mxCell id="3" value="" style="shape=tableRow;horizontal=0;startSize=0;swimlaneHead=0;swimlaneBody=0;fillColor=none;collapsible=0;dropTarget=0;points=[[0,0.5],[1,0.5]];portConstraint=eastwest;top=0;left=0;right=0;bottom=0;" parent="2" vertex="1">
                    <mxGeometry width="386.25" height="30" as="geometry"/>
                </mxCell>
                <mxCell id="4" value="Collectors" style="shape=partialRectangle;connectable=0;fillColor=#f0a30a;top=0;left=0;bottom=0;right=0;editable=1;overflow=hidden;fontStyle=1;strokeColor=#BD7000;fontSize=13;fontColor=#000000;align=center;verticalAlign=middle;fontFamily=Helvetica;" parent="3" vertex="1">
                    <mxGeometry width="69" height="30" as="geometry">
                        <mxRectangle width="69" height="30" as="alternateBounds"/>
                    </mxGeometry>
                </mxCell>
                <mxCell id="5" value="id" style="shape=partialRectangle;connectable=0;fillColor=#0050ef;top=0;left=0;bottom=0;right=0;align=center;spacingLeft=6;overflow=hidden;fontColor=#ffffff;strokeColor=#001DBC;fontStyle=4;" parent="3" vertex="1">
                    <mxGeometry x="69" width="41" height="30" as="geometry">
                        <mxRectangle width="41" height="30" as="alternateBounds"/>
                    </mxGeometry>
                </mxCell>
                <mxCell id="6" value="name" style="shape=partialRectangle;connectable=0;top=0;left=0;bottom=0;right=0;align=center;spacingLeft=6;overflow=hidden;fillColor=#bac8d3;strokeColor=#23445d;" parent="3" vertex="1">
                    <mxGeometry x="110" width="46.25" height="30" as="geometry">
                        <mxRectangle width="46.25" height="30" as="alternateBounds"/>
                    </mxGeometry>
                </mxCell>
                <mxCell id="7" value="address" style="shape=partialRectangle;connectable=0;top=0;left=0;bottom=0;right=0;align=center;spacingLeft=6;overflow=hidden;fillColor=#bac8d3;strokeColor=#23445d;verticalAlign=middle;fontFamily=Helvetica;fontSize=12;" parent="3" vertex="1">
                    <mxGeometry x="156.25" width="60" height="30" as="geometry">
                        <mxRectangle width="60" height="30" as="alternateBounds"/>
                    </mxGeometry>
                </mxCell>
                <mxCell id="8" value="phone" style="shape=partialRectangle;connectable=0;top=0;left=0;bottom=0;right=0;align=center;spacingLeft=6;overflow=hidden;fillColor=#bac8d3;strokeColor=#23445d;verticalAlign=middle;fontFamily=Helvetica;fontSize=12;" parent="3" vertex="1">
                    <mxGeometry x="216.25" width="60" height="30" as="geometry">
                        <mxRectangle width="60" height="30" as="alternateBounds"/>
                    </mxGeometry>
                </mxCell>
                <mxCell id="9" value="note" style="shape=partialRectangle;connectable=0;top=0;left=0;bottom=0;right=0;align=center;spacingLeft=6;overflow=hidden;fillColor=#bac8d3;strokeColor=#23445d;verticalAlign=middle;fontFamily=Helvetica;fontSize=12;" parent="3" vertex="1">
                    <mxGeometry x="276.25" width="50" height="30" as="geometry">
                        <mxRectangle width="50" height="30" as="alternateBounds"/>
                    </mxGeometry>
                </mxCell>
                <mxCell id="10" value="date" style="shape=partialRectangle;connectable=0;top=0;left=0;bottom=0;right=0;align=center;spacingLeft=6;overflow=hidden;fillColor=#bac8d3;strokeColor=#23445d;verticalAlign=middle;fontFamily=Helvetica;fontSize=12;" parent="3" vertex="1">
                    <mxGeometry x="326.25" width="60" height="30" as="geometry">
                        <mxRectangle width="60" height="30" as="alternateBounds"/>
                    </mxGeometry>
                </mxCell>
                <mxCell id="11" style="shape=tableRow;horizontal=0;startSize=0;swimlaneHead=0;swimlaneBody=0;fillColor=none;collapsible=0;dropTarget=0;points=[[0,0.5],[1,0.5]];portConstraint=eastwest;top=0;left=0;right=0;bottom=0;" parent="2" vertex="1">
                    <mxGeometry y="30" width="386.25" height="30" as="geometry"/>
                </mxCell>
                <mxCell id="12" value="المحصلين" style="shape=partialRectangle;connectable=0;fillColor=#f0a30a;top=0;left=0;bottom=0;right=0;editable=1;overflow=hidden;fontStyle=1;strokeColor=#BD7000;fontSize=13;fontColor=#000000;align=center;verticalAlign=middle;fontFamily=Helvetica;" parent="11" vertex="1">
                    <mxGeometry width="69" height="30" as="geometry">
                        <mxRectangle width="69" height="30" as="alternateBounds"/>
                    </mxGeometry>
                </mxCell>
                <mxCell id="13" value="الرقم" style="shape=partialRectangle;connectable=0;fillColor=#0050ef;top=0;left=0;bottom=0;right=0;align=center;spacingLeft=6;overflow=hidden;fontColor=#ffffff;strokeColor=#001DBC;fontStyle=4;" parent="11" vertex="1">
                    <mxGeometry x="69" width="41" height="30" as="geometry">
                        <mxRectangle width="41" height="30" as="alternateBounds"/>
                    </mxGeometry>
                </mxCell>
                <mxCell id="14" value="الاسم" style="shape=partialRectangle;connectable=0;top=0;left=0;bottom=0;right=0;align=center;spacingLeft=6;overflow=hidden;fillColor=#bac8d3;strokeColor=#23445d;" parent="11" vertex="1">
                    <mxGeometry x="110" width="46.25" height="30" as="geometry">
                        <mxRectangle width="46.25" height="30" as="alternateBounds"/>
                    </mxGeometry>
                </mxCell>
                <mxCell id="15" value="العنوان" style="shape=partialRectangle;connectable=0;top=0;left=0;bottom=0;right=0;align=center;spacingLeft=6;overflow=hidden;fillColor=#bac8d3;strokeColor=#23445d;verticalAlign=middle;fontFamily=Helvetica;fontSize=12;" parent="11" vertex="1">
                    <mxGeometry x="156.25" width="60" height="30" as="geometry">
                        <mxRectangle width="60" height="30" as="alternateBounds"/>
                    </mxGeometry>
                </mxCell>
                <mxCell id="16" value="التلفون" style="shape=partialRectangle;connectable=0;top=0;left=0;bottom=0;right=0;align=center;spacingLeft=6;overflow=hidden;fillColor=#bac8d3;strokeColor=#23445d;verticalAlign=middle;fontFamily=Helvetica;fontSize=12;" parent="11" vertex="1">
                    <mxGeometry x="216.25" width="60" height="30" as="geometry">
                        <mxRectangle width="60" height="30" as="alternateBounds"/>
                    </mxGeometry>
                </mxCell>
                <mxCell id="17" value="ملاحظة" style="shape=partialRectangle;connectable=0;top=0;left=0;bottom=0;right=0;align=center;spacingLeft=6;overflow=hidden;fillColor=#bac8d3;strokeColor=#23445d;verticalAlign=middle;fontFamily=Helvetica;fontSize=12;" parent="11" vertex="1">
                    <mxGeometry x="276.25" width="50" height="30" as="geometry">
                        <mxRectangle width="50" height="30" as="alternateBounds"/>
                    </mxGeometry>
                </mxCell>
                <mxCell id="18" value="التاريخ" style="shape=partialRectangle;connectable=0;top=0;left=0;bottom=0;right=0;align=center;spacingLeft=6;overflow=hidden;fillColor=#bac8d3;strokeColor=#23445d;verticalAlign=middle;fontFamily=Helvetica;fontSize=12;" parent="11" vertex="1">
                    <mxGeometry x="326.25" width="60" height="30" as="geometry">
                        <mxRectangle width="60" height="30" as="alternateBounds"/>
                    </mxGeometry>
                </mxCell>
                <mxCell id="19" value="" style="shape=table;startSize=0;container=1;collapsible=1;childLayout=tableLayout;fixedRows=1;rowLines=0;fontStyle=0;align=center;resizeLast=1;strokeColor=light-dark(#001DBC,#000000);fillColor=#0050ef;collapsible=0;fontColor=#ffffff;" parent="1" vertex="1">
                    <mxGeometry x="310" y="122" width="430" height="60" as="geometry"/>
                </mxCell>
                <mxCell id="20" value="" style="shape=tableRow;horizontal=0;startSize=0;swimlaneHead=0;swimlaneBody=0;fillColor=none;collapsible=0;dropTarget=0;points=[[0,0.5],[1,0.5]];portConstraint=eastwest;top=0;left=0;right=0;bottom=0;" parent="19" vertex="1">
                    <mxGeometry width="430" height="30" as="geometry"/>
                </mxCell>
                <mxCell id="21" value="Regtions" style="shape=partialRectangle;connectable=0;fillColor=#f0a30a;top=0;left=0;bottom=0;right=0;editable=1;overflow=hidden;fontStyle=1;strokeColor=#BD7000;fontSize=13;fontColor=#000000;align=center;verticalAlign=middle;fontFamily=Helvetica;" parent="20" vertex="1">
                    <mxGeometry width="70.00000000000023" height="30" as="geometry">
                        <mxRectangle width="70.00000000000023" height="30" as="alternateBounds"/>
                    </mxGeometry>
                </mxCell>
                <mxCell id="22" value="id" style="shape=partialRectangle;connectable=0;fillColor=#0050ef;top=0;left=0;bottom=0;right=0;align=center;spacingLeft=6;overflow=hidden;fontColor=#ffffff;strokeColor=#001DBC;fontStyle=4;" parent="20" vertex="1">
                    <mxGeometry x="70.00000000000023" width="49.99999999999977" height="30" as="geometry">
                        <mxRectangle width="49.99999999999977" height="30" as="alternateBounds"/>
                    </mxGeometry>
                </mxCell>
                <mxCell id="23" value="name" style="shape=partialRectangle;connectable=0;top=0;left=0;bottom=0;right=0;align=center;spacingLeft=6;overflow=hidden;fillColor=#bac8d3;strokeColor=#23445d;" parent="20" vertex="1">
                    <mxGeometry x="120" width="50.00000000000023" height="30" as="geometry">
                        <mxRectangle width="50.00000000000023" height="30" as="alternateBounds"/>
                    </mxGeometry>
                </mxCell>
                <mxCell id="24" value="central_meter_id" style="shape=partialRectangle;connectable=0;top=0;left=0;bottom=0;right=0;align=center;spacingLeft=6;overflow=hidden;fillColor=#647687;strokeColor=#314354;verticalAlign=middle;fontFamily=Helvetica;fontSize=12;fontColor=#ffffff;" parent="20" vertex="1">
                    <mxGeometry x="170.00000000000023" width="119.99999999999977" height="30" as="geometry">
                        <mxRectangle width="119.99999999999977" height="30" as="alternateBounds"/>
                    </mxGeometry>
                </mxCell>
                <mxCell id="25" value="note" style="shape=partialRectangle;connectable=0;top=0;left=0;bottom=0;right=0;align=center;spacingLeft=6;overflow=hidden;fillColor=#bac8d3;strokeColor=#23445d;verticalAlign=middle;fontFamily=Helvetica;fontSize=12;" parent="20" vertex="1">
                    <mxGeometry x="290" width="70" height="30" as="geometry">
                        <mxRectangle width="70" height="30" as="alternateBounds"/>
                    </mxGeometry>
                </mxCell>
                <mxCell id="26" value="date" style="shape=partialRectangle;connectable=0;top=0;left=0;bottom=0;right=0;align=center;spacingLeft=6;overflow=hidden;fillColor=#bac8d3;strokeColor=#23445d;verticalAlign=middle;fontFamily=Helvetica;fontSize=12;" parent="20" vertex="1">
                    <mxGeometry x="360" width="70" height="30" as="geometry">
                        <mxRectangle width="70" height="30" as="alternateBounds"/>
                    </mxGeometry>
                </mxCell>
                <mxCell id="27" style="shape=tableRow;horizontal=0;startSize=0;swimlaneHead=0;swimlaneBody=0;fillColor=none;collapsible=0;dropTarget=0;points=[[0,0.5],[1,0.5]];portConstraint=eastwest;top=0;left=0;right=0;bottom=0;" parent="19" vertex="1">
                    <mxGeometry y="30" width="430" height="30" as="geometry"/>
                </mxCell>
                <mxCell id="28" value="المناطق" style="shape=partialRectangle;connectable=0;fillColor=#f0a30a;top=0;left=0;bottom=0;right=0;editable=1;overflow=hidden;fontStyle=1;strokeColor=#BD7000;fontSize=13;fontColor=#000000;align=center;verticalAlign=middle;fontFamily=Helvetica;" parent="27" vertex="1">
                    <mxGeometry width="70.00000000000023" height="30" as="geometry">
                        <mxRectangle width="70.00000000000023" height="30" as="alternateBounds"/>
                    </mxGeometry>
                </mxCell>
                <mxCell id="29" value="الرقم" style="shape=partialRectangle;connectable=0;fillColor=#0050ef;top=0;left=0;bottom=0;right=0;align=center;spacingLeft=6;overflow=hidden;fontColor=#ffffff;strokeColor=#001DBC;fontStyle=4;" parent="27" vertex="1">
                    <mxGeometry x="70.00000000000023" width="49.99999999999977" height="30" as="geometry">
                        <mxRectangle width="49.99999999999977" height="30" as="alternateBounds"/>
                    </mxGeometry>
                </mxCell>
                <mxCell id="30" value="الاسم" style="shape=partialRectangle;connectable=0;top=0;left=0;bottom=0;right=0;align=center;spacingLeft=6;overflow=hidden;fillColor=#bac8d3;strokeColor=#23445d;" parent="27" vertex="1">
                    <mxGeometry x="120" width="50.00000000000023" height="30" as="geometry">
                        <mxRectangle width="50.00000000000023" height="30" as="alternateBounds"/>
                    </mxGeometry>
                </mxCell>
                <mxCell id="31" value="رقم العداد المركزي" style="shape=partialRectangle;connectable=0;top=0;left=0;bottom=0;right=0;align=center;spacingLeft=6;overflow=hidden;fillColor=#647687;strokeColor=#314354;verticalAlign=middle;fontFamily=Helvetica;fontSize=12;fontColor=#ffffff;" parent="27" vertex="1">
                    <mxGeometry x="170.00000000000023" width="119.99999999999977" height="30" as="geometry">
                        <mxRectangle width="119.99999999999977" height="30" as="alternateBounds"/>
                    </mxGeometry>
                </mxCell>
                <mxCell id="32" value="ملاحظة" style="shape=partialRectangle;connectable=0;top=0;left=0;bottom=0;right=0;align=center;spacingLeft=6;overflow=hidden;fillColor=#bac8d3;strokeColor=#23445d;verticalAlign=middle;fontFamily=Helvetica;fontSize=12;" parent="27" vertex="1">
                    <mxGeometry x="290" width="70" height="30" as="geometry">
                        <mxRectangle width="70" height="30" as="alternateBounds"/>
                    </mxGeometry>
                </mxCell>
                <mxCell id="33" value="التاريخ" style="shape=partialRectangle;connectable=0;top=0;left=0;bottom=0;right=0;align=center;spacingLeft=6;overflow=hidden;fillColor=#bac8d3;strokeColor=#23445d;verticalAlign=middle;fontFamily=Helvetica;fontSize=12;" parent="27" vertex="1">
                    <mxGeometry x="360" width="70" height="30" as="geometry">
                        <mxRectangle width="70" height="30" as="alternateBounds"/>
                    </mxGeometry>
                </mxCell>
                <mxCell id="34" value="" style="shape=table;startSize=0;container=1;collapsible=1;childLayout=tableLayout;fixedRows=1;rowLines=0;fontStyle=0;align=center;resizeLast=1;strokeColor=light-dark(#001DBC,#000000);fillColor=#0050ef;collapsible=0;fontColor=#ffffff;" parent="1" vertex="1">
                    <mxGeometry x="59.379999999999995" y="235" width="379.0000000000001" height="60" as="geometry"/>
                </mxCell>
                <mxCell id="35" value="" style="shape=tableRow;horizontal=0;startSize=0;swimlaneHead=0;swimlaneBody=0;fillColor=none;collapsible=0;dropTarget=0;points=[[0,0.5],[1,0.5]];portConstraint=eastwest;top=0;left=0;right=0;bottom=0;" parent="34" vertex="1">
                    <mxGeometry width="379.0000000000001" height="30" as="geometry"/>
                </mxCell>
                <mxCell id="36" value="Blocks" style="shape=partialRectangle;connectable=0;fillColor=#f0a30a;top=0;left=0;bottom=0;right=0;editable=1;overflow=hidden;fontStyle=1;strokeColor=#BD7000;fontSize=13;fontColor=#000000;align=center;verticalAlign=middle;fontFamily=Helvetica;" parent="35" vertex="1">
                    <mxGeometry width="60.86999999999989" height="30" as="geometry">
                        <mxRectangle width="60.86999999999989" height="30" as="alternateBounds"/>
                    </mxGeometry>
                </mxCell>
                <mxCell id="37" value="id" style="shape=partialRectangle;connectable=0;fillColor=#0050ef;top=0;left=0;bottom=0;right=0;align=center;spacingLeft=6;overflow=hidden;fontColor=#ffffff;strokeColor=#001DBC;fontStyle=4;" parent="35" vertex="1">
                    <mxGeometry x="60.86999999999989" width="49.13000000000011" height="30" as="geometry">
                        <mxRectangle width="49.13000000000011" height="30" as="alternateBounds"/>
                    </mxGeometry>
                </mxCell>
                <mxCell id="38" value="name" style="shape=partialRectangle;connectable=0;top=0;left=0;bottom=0;right=0;align=center;spacingLeft=6;overflow=hidden;fillColor=#bac8d3;strokeColor=#23445d;" parent="35" vertex="1">
                    <mxGeometry x="110" width="60.86999999999989" height="30" as="geometry">
                        <mxRectangle width="60.86999999999989" height="30" as="alternateBounds"/>
                    </mxGeometry>
                </mxCell>
                <mxCell id="39" value="collector_id" style="shape=partialRectangle;connectable=0;top=0;left=0;bottom=0;right=0;align=center;spacingLeft=6;overflow=hidden;verticalAlign=middle;fontFamily=Helvetica;fontSize=12;fillColor=#647687;fontColor=#ffffff;strokeColor=#314354;" parent="35" vertex="1">
                    <mxGeometry x="170.8699999999999" width="78.13000000000011" height="30" as="geometry">
                        <mxRectangle width="78.13000000000011" height="30" as="alternateBounds"/>
                    </mxGeometry>
                </mxCell>
                <mxCell id="40" value="regtion_id" style="shape=partialRectangle;connectable=0;top=0;left=0;bottom=0;right=0;align=center;spacingLeft=6;overflow=hidden;fillColor=#647687;fontColor=#ffffff;strokeColor=#314354;verticalAlign=middle;fontFamily=Helvetica;fontSize=12;" parent="35" vertex="1">
                    <mxGeometry x="249" width="69" height="30" as="geometry">
                        <mxRectangle width="69" height="30" as="alternateBounds"/>
                    </mxGeometry>
                </mxCell>
                <mxCell id="41" value="date" style="shape=partialRectangle;connectable=0;top=0;left=0;bottom=0;right=0;align=center;spacingLeft=6;overflow=hidden;fillColor=#bac8d3;strokeColor=#23445d;verticalAlign=middle;fontFamily=Helvetica;fontSize=12;" parent="35" vertex="1">
                    <mxGeometry x="318" width="61.000000000000114" height="30" as="geometry">
                        <mxRectangle width="61.000000000000114" height="30" as="alternateBounds"/>
                    </mxGeometry>
                </mxCell>
                <mxCell id="42" style="shape=tableRow;horizontal=0;startSize=0;swimlaneHead=0;swimlaneBody=0;fillColor=none;collapsible=0;dropTarget=0;points=[[0,0.5],[1,0.5]];portConstraint=eastwest;top=0;left=0;right=0;bottom=0;" parent="34" vertex="1">
                    <mxGeometry y="30" width="379.0000000000001" height="30" as="geometry"/>
                </mxCell>
                <mxCell id="43" value="المربعات" style="shape=partialRectangle;connectable=0;fillColor=#f0a30a;top=0;left=0;bottom=0;right=0;editable=1;overflow=hidden;fontStyle=1;strokeColor=#BD7000;fontSize=13;fontColor=#000000;align=center;verticalAlign=middle;fontFamily=Helvetica;" parent="42" vertex="1">
                    <mxGeometry width="60.86999999999989" height="30" as="geometry">
                        <mxRectangle width="60.86999999999989" height="30" as="alternateBounds"/>
                    </mxGeometry>
                </mxCell>
                <mxCell id="44" value="الرقم" style="shape=partialRectangle;connectable=0;fillColor=#0050ef;top=0;left=0;bottom=0;right=0;align=center;spacingLeft=6;overflow=hidden;fontColor=#ffffff;strokeColor=#001DBC;fontStyle=4;" parent="42" vertex="1">
                    <mxGeometry x="60.86999999999989" width="49.13000000000011" height="30" as="geometry">
                        <mxRectangle width="49.13000000000011" height="30" as="alternateBounds"/>
                    </mxGeometry>
                </mxCell>
                <mxCell id="45" value="الاسم" style="shape=partialRectangle;connectable=0;top=0;left=0;bottom=0;right=0;align=center;spacingLeft=6;overflow=hidden;fillColor=#bac8d3;strokeColor=#23445d;" parent="42" vertex="1">
                    <mxGeometry x="110" width="60.86999999999989" height="30" as="geometry">
                        <mxRectangle width="60.86999999999989" height="30" as="alternateBounds"/>
                    </mxGeometry>
                </mxCell>
                <mxCell id="46" value="رقم المحصل" style="shape=partialRectangle;connectable=0;top=0;left=0;bottom=0;right=0;align=center;spacingLeft=6;overflow=hidden;verticalAlign=middle;fontFamily=Helvetica;fontSize=12;fillColor=#647687;fontColor=#ffffff;strokeColor=#314354;" parent="42" vertex="1">
                    <mxGeometry x="170.8699999999999" width="78.13000000000011" height="30" as="geometry">
                        <mxRectangle width="78.13000000000011" height="30" as="alternateBounds"/>
                    </mxGeometry>
                </mxCell>
                <mxCell id="47" value="رقم المنطقة" style="shape=partialRectangle;connectable=0;top=0;left=0;bottom=0;right=0;align=center;spacingLeft=6;overflow=hidden;fillColor=#647687;fontColor=#ffffff;strokeColor=#314354;verticalAlign=middle;fontFamily=Helvetica;fontSize=12;" parent="42" vertex="1">
                    <mxGeometry x="249" width="69" height="30" as="geometry">
                        <mxRectangle width="69" height="30" as="alternateBounds"/>
                    </mxGeometry>
                </mxCell>
                <mxCell id="48" value="التاريخ" style="shape=partialRectangle;connectable=0;top=0;left=0;bottom=0;right=0;align=center;spacingLeft=6;overflow=hidden;fillColor=#bac8d3;strokeColor=#23445d;verticalAlign=middle;fontFamily=Helvetica;fontSize=12;" parent="42" vertex="1">
                    <mxGeometry x="318" width="61.000000000000114" height="30" as="geometry">
                        <mxRectangle width="61.000000000000114" height="30" as="alternateBounds"/>
                    </mxGeometry>
                </mxCell>
                <mxCell id="49" value="" style="shape=table;startSize=0;container=1;collapsible=1;childLayout=tableLayout;fixedRows=1;rowLines=0;fontStyle=0;align=center;resizeLast=1;strokeColor=light-dark(#001DBC,#000000);fillColor=#0050ef;collapsible=0;fontColor=#ffffff;" parent="1" vertex="1">
                    <mxGeometry x="467.87" y="235" width="482.25" height="60" as="geometry"/>
                </mxCell>
                <mxCell id="50" value="" style="shape=tableRow;horizontal=0;startSize=0;swimlaneHead=0;swimlaneBody=0;fillColor=none;collapsible=0;dropTarget=0;points=[[0,0.5],[1,0.5]];portConstraint=eastwest;top=0;left=0;right=0;bottom=0;" parent="49" vertex="1">
                    <mxGeometry width="482.25" height="30" as="geometry"/>
                </mxCell>
                <mxCell id="51" value="SubscriptionTypes" style="shape=partialRectangle;connectable=0;fillColor=#f0a30a;top=0;left=0;bottom=0;right=0;editable=1;overflow=hidden;fontStyle=1;strokeColor=#BD7000;fontSize=13;fontColor=#000000;align=center;verticalAlign=middle;fontFamily=Helvetica;" parent="50" vertex="1">
                    <mxGeometry width="132.25" height="30" as="geometry">
                        <mxRectangle width="132.25" height="30" as="alternateBounds"/>
                    </mxGeometry>
                </mxCell>
                <mxCell id="52" value="id" style="shape=partialRectangle;connectable=0;fillColor=#0050ef;top=0;left=0;bottom=0;right=0;align=center;spacingLeft=6;overflow=hidden;fontColor=#ffffff;strokeColor=#001DBC;fontStyle=4;" parent="50" vertex="1">
                    <mxGeometry x="132.25" width="30" height="30" as="geometry">
                        <mxRectangle width="30" height="30" as="alternateBounds"/>
                    </mxGeometry>
                </mxCell>
                <mxCell id="53" value="name" style="shape=partialRectangle;connectable=0;top=0;left=0;bottom=0;right=0;align=center;spacingLeft=6;overflow=hidden;fillColor=#bac8d3;strokeColor=#23445d;" parent="50" vertex="1">
                    <mxGeometry x="162.25" width="60" height="30" as="geometry">
                        <mxRectangle width="60" height="30" as="alternateBounds"/>
                    </mxGeometry>
                </mxCell>
                <mxCell id="54" value="unit_price" style="shape=partialRectangle;connectable=0;top=0;left=0;bottom=0;right=0;align=center;spacingLeft=6;overflow=hidden;fillColor=#bac8d3;strokeColor=#23445d;" parent="50" vertex="1">
                    <mxGeometry x="222.25" width="70" height="30" as="geometry">
                        <mxRectangle width="70" height="30" as="alternateBounds"/>
                    </mxGeometry>
                </mxCell>
                <mxCell id="55" value="service_fees" style="shape=partialRectangle;connectable=0;top=0;left=0;bottom=0;right=0;align=center;spacingLeft=6;overflow=hidden;fillColor=#bac8d3;strokeColor=#23445d;verticalAlign=middle;fontFamily=Helvetica;fontSize=12;" parent="50" vertex="1">
                    <mxGeometry x="292.25" width="90" height="30" as="geometry">
                        <mxRectangle width="90" height="30" as="alternateBounds"/>
                    </mxGeometry>
                </mxCell>
                <mxCell id="56" value="note" style="shape=partialRectangle;connectable=0;top=0;left=0;bottom=0;right=0;align=center;spacingLeft=6;overflow=hidden;fillColor=#bac8d3;strokeColor=#23445d;verticalAlign=middle;fontFamily=Helvetica;fontSize=12;" parent="50" vertex="1">
                    <mxGeometry x="382.25" width="50" height="30" as="geometry">
                        <mxRectangle width="50" height="30" as="alternateBounds"/>
                    </mxGeometry>
                </mxCell>
                <mxCell id="57" value="date" style="shape=partialRectangle;connectable=0;top=0;left=0;bottom=0;right=0;align=center;spacingLeft=6;overflow=hidden;fillColor=#bac8d3;strokeColor=#23445d;verticalAlign=middle;fontFamily=Helvetica;fontSize=12;" parent="50" vertex="1">
                    <mxGeometry x="432.25" width="50" height="30" as="geometry">
                        <mxRectangle width="50" height="30" as="alternateBounds"/>
                    </mxGeometry>
                </mxCell>
                <mxCell id="58" style="shape=tableRow;horizontal=0;startSize=0;swimlaneHead=0;swimlaneBody=0;fillColor=none;collapsible=0;dropTarget=0;points=[[0,0.5],[1,0.5]];portConstraint=eastwest;top=0;left=0;right=0;bottom=0;" parent="49" vertex="1">
                    <mxGeometry y="30" width="482.25" height="30" as="geometry"/>
                </mxCell>
                <mxCell id="59" value="انواع الاشتراكات" style="shape=partialRectangle;connectable=0;fillColor=#f0a30a;top=0;left=0;bottom=0;right=0;editable=1;overflow=hidden;fontStyle=1;strokeColor=#BD7000;fontSize=13;fontColor=#000000;align=center;verticalAlign=middle;fontFamily=Helvetica;" parent="58" vertex="1">
                    <mxGeometry width="132.25" height="30" as="geometry">
                        <mxRectangle width="132.25" height="30" as="alternateBounds"/>
                    </mxGeometry>
                </mxCell>
                <mxCell id="60" value="الرقم" style="shape=partialRectangle;connectable=0;fillColor=#0050ef;top=0;left=0;bottom=0;right=0;align=center;spacingLeft=6;overflow=hidden;fontColor=#ffffff;strokeColor=#001DBC;fontStyle=4;" parent="58" vertex="1">
                    <mxGeometry x="132.25" width="30" height="30" as="geometry">
                        <mxRectangle width="30" height="30" as="alternateBounds"/>
                    </mxGeometry>
                </mxCell>
                <mxCell id="61" value="الاسم" style="shape=partialRectangle;connectable=0;top=0;left=0;bottom=0;right=0;align=center;spacingLeft=6;overflow=hidden;fillColor=#bac8d3;strokeColor=#23445d;" parent="58" vertex="1">
                    <mxGeometry x="162.25" width="60" height="30" as="geometry">
                        <mxRectangle width="60" height="30" as="alternateBounds"/>
                    </mxGeometry>
                </mxCell>
                <mxCell id="62" value="سعر الوحدة" style="shape=partialRectangle;connectable=0;top=0;left=0;bottom=0;right=0;align=center;spacingLeft=6;overflow=hidden;fillColor=#bac8d3;strokeColor=#23445d;" parent="58" vertex="1">
                    <mxGeometry x="222.25" width="70" height="30" as="geometry">
                        <mxRectangle width="70" height="30" as="alternateBounds"/>
                    </mxGeometry>
                </mxCell>
                <mxCell id="63" value="تكلفة الخدمة" style="shape=partialRectangle;connectable=0;top=0;left=0;bottom=0;right=0;align=center;spacingLeft=6;overflow=hidden;fillColor=#bac8d3;strokeColor=#23445d;verticalAlign=middle;fontFamily=Helvetica;fontSize=12;" parent="58" vertex="1">
                    <mxGeometry x="292.25" width="90" height="30" as="geometry">
                        <mxRectangle width="90" height="30" as="alternateBounds"/>
                    </mxGeometry>
                </mxCell>
                <mxCell id="64" value="ملاحظة" style="shape=partialRectangle;connectable=0;top=0;left=0;bottom=0;right=0;align=center;spacingLeft=6;overflow=hidden;fillColor=#bac8d3;strokeColor=#23445d;verticalAlign=middle;fontFamily=Helvetica;fontSize=12;" parent="58" vertex="1">
                    <mxGeometry x="382.25" width="50" height="30" as="geometry">
                        <mxRectangle width="50" height="30" as="alternateBounds"/>
                    </mxGeometry>
                </mxCell>
                <mxCell id="65" value="التاريخ" style="shape=partialRectangle;connectable=0;top=0;left=0;bottom=0;right=0;align=center;spacingLeft=6;overflow=hidden;fillColor=#bac8d3;strokeColor=#23445d;verticalAlign=middle;fontFamily=Helvetica;fontSize=12;" parent="58" vertex="1">
                    <mxGeometry x="432.25" width="50" height="30" as="geometry">
                        <mxRectangle width="50" height="30" as="alternateBounds"/>
                    </mxGeometry>
                </mxCell>
                <mxCell id="66" value="" style="shape=table;startSize=0;container=1;collapsible=1;childLayout=tableLayout;fixedRows=1;rowLines=0;fontStyle=0;align=center;resizeLast=1;strokeColor=light-dark(#001DBC,#000000);fillColor=#0050ef;collapsible=0;fontColor=#ffffff;" parent="1" vertex="1">
                    <mxGeometry x="240" y="660" width="299.9999999999998" height="60" as="geometry"/>
                </mxCell>
                <mxCell id="67" value="" style="shape=tableRow;horizontal=0;startSize=0;swimlaneHead=0;swimlaneBody=0;fillColor=none;collapsible=0;dropTarget=0;points=[[0,0.5],[1,0.5]];portConstraint=eastwest;top=0;left=0;right=0;bottom=0;" parent="66" vertex="1">
                    <mxGeometry width="299.9999999999998" height="30" as="geometry"/>
                </mxCell>
                <mxCell id="68" value="Readings" style="shape=partialRectangle;connectable=0;fillColor=#f0a30a;top=0;left=0;bottom=0;right=0;editable=1;overflow=hidden;fontStyle=1;strokeColor=#BD7000;fontSize=13;fontColor=#000000;align=center;verticalAlign=middle;fontFamily=Helvetica;" parent="67" vertex="1">
                    <mxGeometry width="71.86999999999989" height="30" as="geometry">
                        <mxRectangle width="71.86999999999989" height="30" as="alternateBounds"/>
                    </mxGeometry>
                </mxCell>
                <mxCell id="69" value="id" style="shape=partialRectangle;connectable=0;fillColor=#0050ef;top=0;left=0;bottom=0;right=0;align=center;spacingLeft=6;overflow=hidden;fontColor=#ffffff;strokeColor=#001DBC;fontStyle=4;" parent="67" vertex="1">
                    <mxGeometry x="71.86999999999989" width="48.13000000000011" height="30" as="geometry">
                        <mxRectangle width="48.13000000000011" height="30" as="alternateBounds"/>
                    </mxGeometry>
                </mxCell>
                <mxCell id="70" value="meter_id" style="shape=partialRectangle;connectable=0;top=0;left=0;bottom=0;right=0;align=center;spacingLeft=6;overflow=hidden;fillColor=#647687;fontColor=#ffffff;strokeColor=#314354;" parent="67" vertex="1">
                    <mxGeometry x="120" width="60" height="30" as="geometry">
                        <mxRectangle width="60" height="30" as="alternateBounds"/>
                    </mxGeometry>
                </mxCell>
                <mxCell id="71" value="reading" style="shape=partialRectangle;connectable=0;top=0;left=0;bottom=0;right=0;align=center;spacingLeft=6;overflow=hidden;fillColor=#bac8d3;strokeColor=#23445d;verticalAlign=middle;fontFamily=Helvetica;fontSize=12;" parent="67" vertex="1">
                    <mxGeometry x="180" width="59.99999999999977" height="30" as="geometry">
                        <mxRectangle width="59.99999999999977" height="30" as="alternateBounds"/>
                    </mxGeometry>
                </mxCell>
                <mxCell id="72" value="date" style="shape=partialRectangle;connectable=0;top=0;left=0;bottom=0;right=0;align=center;spacingLeft=6;overflow=hidden;fillColor=#bac8d3;strokeColor=#23445d;verticalAlign=middle;fontFamily=Helvetica;fontSize=12;" parent="67" vertex="1">
                    <mxGeometry x="239.99999999999977" width="60" height="30" as="geometry">
                        <mxRectangle width="60" height="30" as="alternateBounds"/>
                    </mxGeometry>
                </mxCell>
                <mxCell id="73" style="shape=tableRow;horizontal=0;startSize=0;swimlaneHead=0;swimlaneBody=0;fillColor=none;collapsible=0;dropTarget=0;points=[[0,0.5],[1,0.5]];portConstraint=eastwest;top=0;left=0;right=0;bottom=0;" parent="66" vertex="1">
                    <mxGeometry y="30" width="299.9999999999998" height="30" as="geometry"/>
                </mxCell>
                <mxCell id="74" value="القراءات" style="shape=partialRectangle;connectable=0;fillColor=#f0a30a;top=0;left=0;bottom=0;right=0;editable=1;overflow=hidden;fontStyle=1;strokeColor=#BD7000;fontSize=13;fontColor=#000000;align=center;verticalAlign=middle;fontFamily=Helvetica;" parent="73" vertex="1">
                    <mxGeometry width="71.86999999999989" height="30" as="geometry">
                        <mxRectangle width="71.86999999999989" height="30" as="alternateBounds"/>
                    </mxGeometry>
                </mxCell>
                <mxCell id="75" value="الرقم" style="shape=partialRectangle;connectable=0;fillColor=#0050ef;top=0;left=0;bottom=0;right=0;align=center;spacingLeft=6;overflow=hidden;fontColor=#ffffff;strokeColor=#001DBC;fontStyle=4;" parent="73" vertex="1">
                    <mxGeometry x="71.86999999999989" width="48.13000000000011" height="30" as="geometry">
                        <mxRectangle width="48.13000000000011" height="30" as="alternateBounds"/>
                    </mxGeometry>
                </mxCell>
                <mxCell id="76" value="رقم العداد" style="shape=partialRectangle;connectable=0;top=0;left=0;bottom=0;right=0;align=center;spacingLeft=6;overflow=hidden;fillColor=#647687;fontColor=#ffffff;strokeColor=#314354;" parent="73" vertex="1">
                    <mxGeometry x="120" width="60" height="30" as="geometry">
                        <mxRectangle width="60" height="30" as="alternateBounds"/>
                    </mxGeometry>
                </mxCell>
                <mxCell id="77" value="القراءة" style="shape=partialRectangle;connectable=0;top=0;left=0;bottom=0;right=0;align=center;spacingLeft=6;overflow=hidden;fillColor=#bac8d3;strokeColor=#23445d;verticalAlign=middle;fontFamily=Helvetica;fontSize=12;" parent="73" vertex="1">
                    <mxGeometry x="180" width="59.99999999999977" height="30" as="geometry">
                        <mxRectangle width="59.99999999999977" height="30" as="alternateBounds"/>
                    </mxGeometry>
                </mxCell>
                <mxCell id="78" value="التاريخ" style="shape=partialRectangle;connectable=0;top=0;left=0;bottom=0;right=0;align=center;spacingLeft=6;overflow=hidden;fillColor=#bac8d3;strokeColor=#23445d;verticalAlign=middle;fontFamily=Helvetica;fontSize=12;" parent="73" vertex="1">
                    <mxGeometry x="239.99999999999977" width="60" height="30" as="geometry">
                        <mxRectangle width="60" height="30" as="alternateBounds"/>
                    </mxGeometry>
                </mxCell>
                <mxCell id="79" value="" style="shape=table;startSize=0;container=1;collapsible=1;childLayout=tableLayout;fixedRows=1;rowLines=0;fontStyle=0;align=center;resizeLast=1;strokeColor=light-dark(#001DBC,#000000);fillColor=#0050ef;collapsible=0;fontColor=#ffffff;" parent="1" vertex="1">
                    <mxGeometry x="811" y="450" width="418" height="60" as="geometry"/>
                </mxCell>
                <mxCell id="80" value="" style="shape=tableRow;horizontal=0;startSize=0;swimlaneHead=0;swimlaneBody=0;fillColor=none;collapsible=0;dropTarget=0;points=[[0,0.5],[1,0.5]];portConstraint=eastwest;top=0;left=0;right=0;bottom=0;" parent="79" vertex="1">
                    <mxGeometry width="418" height="30" as="geometry"/>
                </mxCell>
                <mxCell id="81" value="Subscribers" style="shape=partialRectangle;connectable=0;fillColor=#f0a30a;top=0;left=0;bottom=0;right=0;editable=1;overflow=hidden;fontStyle=1;strokeColor=#BD7000;fontSize=13;fontColor=#000000;align=center;verticalAlign=middle;fontFamily=Helvetica;" parent="80" vertex="1">
                    <mxGeometry width="98" height="30" as="geometry">
                        <mxRectangle width="98" height="30" as="alternateBounds"/>
                    </mxGeometry>
                </mxCell>
                <mxCell id="82" value="id" style="shape=partialRectangle;connectable=0;fillColor=#0050ef;top=0;left=0;bottom=0;right=0;align=center;spacingLeft=6;overflow=hidden;fontColor=#ffffff;strokeColor=#001DBC;fontStyle=4;" parent="80" vertex="1">
                    <mxGeometry x="98" width="50" height="30" as="geometry">
                        <mxRectangle width="50" height="30" as="alternateBounds"/>
                    </mxGeometry>
                </mxCell>
                <mxCell id="83" value="name" style="shape=partialRectangle;connectable=0;top=0;left=0;bottom=0;right=0;align=center;spacingLeft=6;overflow=hidden;fillColor=#bac8d3;strokeColor=#23445d;" parent="80" vertex="1">
                    <mxGeometry x="148" width="50" height="30" as="geometry">
                        <mxRectangle width="50" height="30" as="alternateBounds"/>
                    </mxGeometry>
                </mxCell>
                <mxCell id="84" value="phone" style="shape=partialRectangle;connectable=0;top=0;left=0;bottom=0;right=0;align=center;spacingLeft=6;overflow=hidden;fillColor=#bac8d3;strokeColor=#23445d;verticalAlign=middle;fontFamily=Helvetica;fontSize=12;" parent="80" vertex="1">
                    <mxGeometry x="198" width="50" height="30" as="geometry">
                        <mxRectangle width="50" height="30" as="alternateBounds"/>
                    </mxGeometry>
                </mxCell>
                <mxCell id="85" value="address" style="shape=partialRectangle;connectable=0;top=0;left=0;bottom=0;right=0;align=center;spacingLeft=6;overflow=hidden;fillColor=#bac8d3;strokeColor=#23445d;verticalAlign=middle;fontFamily=Helvetica;fontSize=12;" parent="80" vertex="1">
                    <mxGeometry x="248" width="70" height="30" as="geometry">
                        <mxRectangle width="70" height="30" as="alternateBounds"/>
                    </mxGeometry>
                </mxCell>
                <mxCell id="86" value="note" style="shape=partialRectangle;connectable=0;top=0;left=0;bottom=0;right=0;align=center;spacingLeft=6;overflow=hidden;fillColor=#bac8d3;strokeColor=#23445d;verticalAlign=middle;fontFamily=Helvetica;fontSize=12;" parent="80" vertex="1">
                    <mxGeometry x="318" width="50" height="30" as="geometry">
                        <mxRectangle width="50" height="30" as="alternateBounds"/>
                    </mxGeometry>
                </mxCell>
                <mxCell id="87" value="date" style="shape=partialRectangle;connectable=0;top=0;left=0;bottom=0;right=0;align=center;spacingLeft=6;overflow=hidden;fillColor=#bac8d3;strokeColor=#23445d;verticalAlign=middle;fontFamily=Helvetica;fontSize=12;" parent="80" vertex="1">
                    <mxGeometry x="368" width="50" height="30" as="geometry">
                        <mxRectangle width="50" height="30" as="alternateBounds"/>
                    </mxGeometry>
                </mxCell>
                <mxCell id="88" style="shape=tableRow;horizontal=0;startSize=0;swimlaneHead=0;swimlaneBody=0;fillColor=none;collapsible=0;dropTarget=0;points=[[0,0.5],[1,0.5]];portConstraint=eastwest;top=0;left=0;right=0;bottom=0;" parent="79" vertex="1">
                    <mxGeometry y="30" width="418" height="30" as="geometry"/>
                </mxCell>
                <mxCell id="89" value="المشتركين" style="shape=partialRectangle;connectable=0;fillColor=#f0a30a;top=0;left=0;bottom=0;right=0;editable=1;overflow=hidden;fontStyle=1;strokeColor=#BD7000;fontSize=13;fontColor=#000000;align=center;verticalAlign=middle;fontFamily=Helvetica;" parent="88" vertex="1">
                    <mxGeometry width="98" height="30" as="geometry">
                        <mxRectangle width="98" height="30" as="alternateBounds"/>
                    </mxGeometry>
                </mxCell>
                <mxCell id="90" value="الرقم" style="shape=partialRectangle;connectable=0;fillColor=#0050ef;top=0;left=0;bottom=0;right=0;align=center;spacingLeft=6;overflow=hidden;fontColor=#ffffff;strokeColor=#001DBC;fontStyle=4;" parent="88" vertex="1">
                    <mxGeometry x="98" width="50" height="30" as="geometry">
                        <mxRectangle width="50" height="30" as="alternateBounds"/>
                    </mxGeometry>
                </mxCell>
                <mxCell id="91" value="الاسم" style="shape=partialRectangle;connectable=0;top=0;left=0;bottom=0;right=0;align=center;spacingLeft=6;overflow=hidden;fillColor=#bac8d3;strokeColor=#23445d;" parent="88" vertex="1">
                    <mxGeometry x="148" width="50" height="30" as="geometry">
                        <mxRectangle width="50" height="30" as="alternateBounds"/>
                    </mxGeometry>
                </mxCell>
                <mxCell id="92" value="التلفون" style="shape=partialRectangle;connectable=0;top=0;left=0;bottom=0;right=0;align=center;spacingLeft=6;overflow=hidden;fillColor=#bac8d3;strokeColor=#23445d;verticalAlign=middle;fontFamily=Helvetica;fontSize=12;" parent="88" vertex="1">
                    <mxGeometry x="198" width="50" height="30" as="geometry">
                        <mxRectangle width="50" height="30" as="alternateBounds"/>
                    </mxGeometry>
                </mxCell>
                <mxCell id="93" value="العنوان" style="shape=partialRectangle;connectable=0;top=0;left=0;bottom=0;right=0;align=center;spacingLeft=6;overflow=hidden;fillColor=#bac8d3;strokeColor=#23445d;verticalAlign=middle;fontFamily=Helvetica;fontSize=12;" parent="88" vertex="1">
                    <mxGeometry x="248" width="70" height="30" as="geometry">
                        <mxRectangle width="70" height="30" as="alternateBounds"/>
                    </mxGeometry>
                </mxCell>
                <mxCell id="94" value="ملاحظة" style="shape=partialRectangle;connectable=0;top=0;left=0;bottom=0;right=0;align=center;spacingLeft=6;overflow=hidden;fillColor=#bac8d3;strokeColor=#23445d;verticalAlign=middle;fontFamily=Helvetica;fontSize=12;" parent="88" vertex="1">
                    <mxGeometry x="318" width="50" height="30" as="geometry">
                        <mxRectangle width="50" height="30" as="alternateBounds"/>
                    </mxGeometry>
                </mxCell>
                <mxCell id="95" value="التاريخ" style="shape=partialRectangle;connectable=0;top=0;left=0;bottom=0;right=0;align=center;spacingLeft=6;overflow=hidden;fillColor=#bac8d3;strokeColor=#23445d;verticalAlign=middle;fontFamily=Helvetica;fontSize=12;" parent="88" vertex="1">
                    <mxGeometry x="368" width="50" height="30" as="geometry">
                        <mxRectangle width="50" height="30" as="alternateBounds"/>
                    </mxGeometry>
                </mxCell>
                <mxCell id="96" value="" style="shape=table;startSize=0;container=1;collapsible=1;childLayout=tableLayout;fixedRows=1;rowLines=0;fontStyle=0;align=center;resizeLast=1;strokeColor=light-dark(#001DBC,#000000);fillColor=#0050ef;collapsible=0;fontColor=#ffffff;" parent="1" vertex="1">
                    <mxGeometry x="321" y="366" width="490" height="60" as="geometry"/>
                </mxCell>
                <mxCell id="97" value="" style="shape=tableRow;horizontal=0;startSize=0;swimlaneHead=0;swimlaneBody=0;fillColor=none;collapsible=0;dropTarget=0;points=[[0,0.5],[1,0.5]];portConstraint=eastwest;top=0;left=0;right=0;bottom=0;" parent="96" vertex="1">
                    <mxGeometry width="490" height="30" as="geometry"/>
                </mxCell>
                <mxCell id="98" value="Contracts" style="shape=partialRectangle;connectable=0;fillColor=#f0a30a;top=0;left=0;bottom=0;right=0;editable=1;overflow=hidden;fontStyle=1;strokeColor=#BD7000;fontSize=13;fontColor=#000000;align=center;verticalAlign=middle;fontFamily=Helvetica;" parent="97" vertex="1">
                    <mxGeometry width="100" height="30" as="geometry">
                        <mxRectangle width="100" height="30" as="alternateBounds"/>
                    </mxGeometry>
                </mxCell>
                <mxCell id="99" value="id" style="shape=partialRectangle;connectable=0;fillColor=#0050ef;top=0;left=0;bottom=0;right=0;align=center;spacingLeft=6;overflow=hidden;fontColor=#ffffff;strokeColor=#001DBC;fontStyle=4;" parent="97" vertex="1">
                    <mxGeometry x="100" width="40" height="30" as="geometry">
                        <mxRectangle width="40" height="30" as="alternateBounds"/>
                    </mxGeometry>
                </mxCell>
                <mxCell id="100" value="name" style="shape=partialRectangle;connectable=0;top=0;left=0;bottom=0;right=0;align=center;spacingLeft=6;overflow=hidden;fillColor=#bac8d3;strokeColor=#23445d;" parent="97" vertex="1">
                    <mxGeometry x="140" width="60" height="30" as="geometry">
                        <mxRectangle width="60" height="30" as="alternateBounds"/>
                    </mxGeometry>
                </mxCell>
                <mxCell id="101" value="terms" style="shape=partialRectangle;connectable=0;top=0;left=0;bottom=0;right=0;align=center;spacingLeft=6;overflow=hidden;fillColor=#bac8d3;strokeColor=#23445d;verticalAlign=middle;fontFamily=Helvetica;fontSize=12;" parent="97" vertex="1">
                    <mxGeometry x="200" width="60" height="30" as="geometry">
                        <mxRectangle width="60" height="30" as="alternateBounds"/>
                    </mxGeometry>
                </mxCell>
                <mxCell id="102" value="note" style="shape=partialRectangle;connectable=0;top=0;left=0;bottom=0;right=0;align=center;spacingLeft=6;overflow=hidden;fillColor=#bac8d3;strokeColor=#23445d;verticalAlign=middle;fontFamily=Helvetica;fontSize=12;" parent="97" vertex="1">
                    <mxGeometry x="260" width="60" height="30" as="geometry">
                        <mxRectangle width="60" height="30" as="alternateBounds"/>
                    </mxGeometry>
                </mxCell>
                <mxCell id="103" value="type_id" style="shape=partialRectangle;connectable=0;top=0;left=0;bottom=0;right=0;align=center;spacingLeft=6;overflow=hidden;fillColor=#647687;fontColor=#ffffff;strokeColor=#314354;verticalAlign=middle;fontFamily=Helvetica;fontSize=12;" parent="97" vertex="1">
                    <mxGeometry x="320" width="110" height="30" as="geometry">
                        <mxRectangle width="110" height="30" as="alternateBounds"/>
                    </mxGeometry>
                </mxCell>
                <mxCell id="104" value="date" style="shape=partialRectangle;connectable=0;top=0;left=0;bottom=0;right=0;align=center;spacingLeft=6;overflow=hidden;fillColor=#bac8d3;strokeColor=#23445d;verticalAlign=middle;fontFamily=Helvetica;fontSize=12;" parent="97" vertex="1">
                    <mxGeometry x="430" width="60" height="30" as="geometry">
                        <mxRectangle width="60" height="30" as="alternateBounds"/>
                    </mxGeometry>
                </mxCell>
                <mxCell id="105" style="shape=tableRow;horizontal=0;startSize=0;swimlaneHead=0;swimlaneBody=0;fillColor=none;collapsible=0;dropTarget=0;points=[[0,0.5],[1,0.5]];portConstraint=eastwest;top=0;left=0;right=0;bottom=0;" parent="96" vertex="1">
                    <mxGeometry y="30" width="490" height="30" as="geometry"/>
                </mxCell>
                <mxCell id="106" value="العقود" style="shape=partialRectangle;connectable=0;fillColor=#f0a30a;top=0;left=0;bottom=0;right=0;editable=1;overflow=hidden;fontStyle=1;strokeColor=#BD7000;fontSize=13;fontColor=#000000;align=center;verticalAlign=middle;fontFamily=Helvetica;" parent="105" vertex="1">
                    <mxGeometry width="100" height="30" as="geometry">
                        <mxRectangle width="100" height="30" as="alternateBounds"/>
                    </mxGeometry>
                </mxCell>
                <mxCell id="107" value="الرقم" style="shape=partialRectangle;connectable=0;fillColor=#0050ef;top=0;left=0;bottom=0;right=0;align=center;spacingLeft=6;overflow=hidden;fontColor=#ffffff;strokeColor=#001DBC;fontStyle=4;" parent="105" vertex="1">
                    <mxGeometry x="100" width="40" height="30" as="geometry">
                        <mxRectangle width="40" height="30" as="alternateBounds"/>
                    </mxGeometry>
                </mxCell>
                <mxCell id="108" value="الاسم" style="shape=partialRectangle;connectable=0;top=0;left=0;bottom=0;right=0;align=center;spacingLeft=6;overflow=hidden;fillColor=#bac8d3;strokeColor=#23445d;" parent="105" vertex="1">
                    <mxGeometry x="140" width="60" height="30" as="geometry">
                        <mxRectangle width="60" height="30" as="alternateBounds"/>
                    </mxGeometry>
                </mxCell>
                <mxCell id="109" value="الشروط" style="shape=partialRectangle;connectable=0;top=0;left=0;bottom=0;right=0;align=center;spacingLeft=6;overflow=hidden;fillColor=#bac8d3;strokeColor=#23445d;verticalAlign=middle;fontFamily=Helvetica;fontSize=12;" parent="105" vertex="1">
                    <mxGeometry x="200" width="60" height="30" as="geometry">
                        <mxRectangle width="60" height="30" as="alternateBounds"/>
                    </mxGeometry>
                </mxCell>
                <mxCell id="110" value="ملاحظة" style="shape=partialRectangle;connectable=0;top=0;left=0;bottom=0;right=0;align=center;spacingLeft=6;overflow=hidden;fillColor=#bac8d3;strokeColor=#23445d;verticalAlign=middle;fontFamily=Helvetica;fontSize=12;" parent="105" vertex="1">
                    <mxGeometry x="260" width="60" height="30" as="geometry">
                        <mxRectangle width="60" height="30" as="alternateBounds"/>
                    </mxGeometry>
                </mxCell>
                <mxCell id="111" value="رقم نوع العقد" style="shape=partialRectangle;connectable=0;top=0;left=0;bottom=0;right=0;align=center;spacingLeft=6;overflow=hidden;fillColor=#647687;fontColor=#ffffff;strokeColor=#314354;verticalAlign=middle;fontFamily=Helvetica;fontSize=12;" parent="105" vertex="1">
                    <mxGeometry x="320" width="110" height="30" as="geometry">
                        <mxRectangle width="110" height="30" as="alternateBounds"/>
                    </mxGeometry>
                </mxCell>
                <mxCell id="112" value="التاريخ" style="shape=partialRectangle;connectable=0;top=0;left=0;bottom=0;right=0;align=center;spacingLeft=6;overflow=hidden;fillColor=#bac8d3;strokeColor=#23445d;verticalAlign=middle;fontFamily=Helvetica;fontSize=12;" parent="105" vertex="1">
                    <mxGeometry x="430" width="60" height="30" as="geometry">
                        <mxRectangle width="60" height="30" as="alternateBounds"/>
                    </mxGeometry>
                </mxCell>
                <mxCell id="113" value="" style="shape=table;startSize=0;container=1;collapsible=1;childLayout=tableLayout;fixedRows=1;rowLines=0;fontStyle=0;align=center;resizeLast=1;strokeColor=light-dark(#001DBC,#000000);fillColor=#0050ef;collapsible=0;fontColor=#ffffff;" parent="1" vertex="1">
                    <mxGeometry x="620" y="10" width="370" height="60" as="geometry"/>
                </mxCell>
                <mxCell id="114" value="" style="shape=tableRow;horizontal=0;startSize=0;swimlaneHead=0;swimlaneBody=0;fillColor=none;collapsible=0;dropTarget=0;points=[[0,0.5],[1,0.5]];portConstraint=eastwest;top=0;left=0;right=0;bottom=0;" parent="113" vertex="1">
                    <mxGeometry width="370" height="30" as="geometry"/>
                </mxCell>
                <mxCell id="115" value="CentralMeters" style="shape=partialRectangle;connectable=0;fillColor=#f0a30a;top=0;left=0;bottom=0;right=0;editable=1;overflow=hidden;fontStyle=1;strokeColor=#BD7000;fontSize=13;fontColor=#000000;align=center;verticalAlign=middle;fontFamily=Helvetica;" parent="114" vertex="1">
                    <mxGeometry width="95" height="30" as="geometry">
                        <mxRectangle width="95" height="30" as="alternateBounds"/>
                    </mxGeometry>
                </mxCell>
                <mxCell id="116" value="id" style="shape=partialRectangle;connectable=0;fillColor=#0050ef;top=0;left=0;bottom=0;right=0;align=center;spacingLeft=6;overflow=hidden;fontColor=#ffffff;strokeColor=#001DBC;fontStyle=4;" parent="114" vertex="1">
                    <mxGeometry x="95" width="55" height="30" as="geometry">
                        <mxRectangle width="55" height="30" as="alternateBounds"/>
                    </mxGeometry>
                </mxCell>
                <mxCell id="117" value="name" style="shape=partialRectangle;connectable=0;top=0;left=0;bottom=0;right=0;align=center;spacingLeft=6;overflow=hidden;fillColor=#bac8d3;strokeColor=#23445d;" parent="114" vertex="1">
                    <mxGeometry x="150" width="50" height="30" as="geometry">
                        <mxRectangle width="50" height="30" as="alternateBounds"/>
                    </mxGeometry>
                </mxCell>
                <mxCell id="118" value="limit" style="shape=partialRectangle;connectable=0;top=0;left=0;bottom=0;right=0;align=center;spacingLeft=6;overflow=hidden;fillColor=#bac8d3;strokeColor=#23445d;verticalAlign=middle;fontFamily=Helvetica;fontSize=12;" parent="114" vertex="1">
                    <mxGeometry x="200" width="50" height="30" as="geometry">
                        <mxRectangle width="50" height="30" as="alternateBounds"/>
                    </mxGeometry>
                </mxCell>
                <mxCell id="119" value="note" style="shape=partialRectangle;connectable=0;top=0;left=0;bottom=0;right=0;align=center;spacingLeft=6;overflow=hidden;fillColor=#bac8d3;strokeColor=#23445d;verticalAlign=middle;fontFamily=Helvetica;fontSize=12;" parent="114" vertex="1">
                    <mxGeometry x="250" width="70" height="30" as="geometry">
                        <mxRectangle width="70" height="30" as="alternateBounds"/>
                    </mxGeometry>
                </mxCell>
                <mxCell id="120" value="date" style="shape=partialRectangle;connectable=0;top=0;left=0;bottom=0;right=0;align=center;spacingLeft=6;overflow=hidden;fillColor=#bac8d3;strokeColor=#23445d;verticalAlign=middle;fontFamily=Helvetica;fontSize=12;" parent="114" vertex="1">
                    <mxGeometry x="320" width="50" height="30" as="geometry">
                        <mxRectangle width="50" height="30" as="alternateBounds"/>
                    </mxGeometry>
                </mxCell>
                <mxCell id="121" style="shape=tableRow;horizontal=0;startSize=0;swimlaneHead=0;swimlaneBody=0;fillColor=none;collapsible=0;dropTarget=0;points=[[0,0.5],[1,0.5]];portConstraint=eastwest;top=0;left=0;right=0;bottom=0;" parent="113" vertex="1">
                    <mxGeometry y="30" width="370" height="30" as="geometry"/>
                </mxCell>
                <mxCell id="122" value="العدادات المركزية" style="shape=partialRectangle;connectable=0;fillColor=#f0a30a;top=0;left=0;bottom=0;right=0;editable=1;overflow=hidden;fontStyle=1;strokeColor=#BD7000;fontSize=13;fontColor=#000000;align=center;verticalAlign=middle;fontFamily=Helvetica;" parent="121" vertex="1">
                    <mxGeometry width="95" height="30" as="geometry">
                        <mxRectangle width="95" height="30" as="alternateBounds"/>
                    </mxGeometry>
                </mxCell>
                <mxCell id="123" value="الرقم" style="shape=partialRectangle;connectable=0;fillColor=#0050ef;top=0;left=0;bottom=0;right=0;align=center;spacingLeft=6;overflow=hidden;fontColor=#ffffff;strokeColor=#001DBC;fontStyle=4;" parent="121" vertex="1">
                    <mxGeometry x="95" width="55" height="30" as="geometry">
                        <mxRectangle width="55" height="30" as="alternateBounds"/>
                    </mxGeometry>
                </mxCell>
                <mxCell id="124" value="الاسم" style="shape=partialRectangle;connectable=0;top=0;left=0;bottom=0;right=0;align=center;spacingLeft=6;overflow=hidden;fillColor=#bac8d3;strokeColor=#23445d;" parent="121" vertex="1">
                    <mxGeometry x="150" width="50" height="30" as="geometry">
                        <mxRectangle width="50" height="30" as="alternateBounds"/>
                    </mxGeometry>
                </mxCell>
                <mxCell id="125" value="الحد" style="shape=partialRectangle;connectable=0;top=0;left=0;bottom=0;right=0;align=center;spacingLeft=6;overflow=hidden;fillColor=#bac8d3;strokeColor=#23445d;verticalAlign=middle;fontFamily=Helvetica;fontSize=12;" parent="121" vertex="1">
                    <mxGeometry x="200" width="50" height="30" as="geometry">
                        <mxRectangle width="50" height="30" as="alternateBounds"/>
                    </mxGeometry>
                </mxCell>
                <mxCell id="126" value="ملاحظة" style="shape=partialRectangle;connectable=0;top=0;left=0;bottom=0;right=0;align=center;spacingLeft=6;overflow=hidden;fillColor=#bac8d3;strokeColor=#23445d;verticalAlign=middle;fontFamily=Helvetica;fontSize=12;" parent="121" vertex="1">
                    <mxGeometry x="250" width="70" height="30" as="geometry">
                        <mxRectangle width="70" height="30" as="alternateBounds"/>
                    </mxGeometry>
                </mxCell>
                <mxCell id="127" value="التاريخ" style="shape=partialRectangle;connectable=0;top=0;left=0;bottom=0;right=0;align=center;spacingLeft=6;overflow=hidden;fillColor=#bac8d3;strokeColor=#23445d;verticalAlign=middle;fontFamily=Helvetica;fontSize=12;" parent="121" vertex="1">
                    <mxGeometry x="320" width="50" height="30" as="geometry">
                        <mxRectangle width="50" height="30" as="alternateBounds"/>
                    </mxGeometry>
                </mxCell>
                <mxCell id="128" value="" style="shape=table;startSize=0;container=1;collapsible=1;childLayout=tableLayout;fixedRows=1;rowLines=0;fontStyle=0;align=center;resizeLast=1;strokeColor=light-dark(#001DBC,#000000);fillColor=#0050ef;collapsible=0;fontColor=#ffffff;" parent="1" vertex="1">
                    <mxGeometry x="47" y="553" width="719" height="60" as="geometry"/>
                </mxCell>
                <mxCell id="129" value="" style="shape=tableRow;horizontal=0;startSize=0;swimlaneHead=0;swimlaneBody=0;fillColor=none;collapsible=0;dropTarget=0;points=[[0,0.5],[1,0.5]];portConstraint=eastwest;top=0;left=0;right=0;bottom=0;" parent="128" vertex="1">
                    <mxGeometry width="719" height="30" as="geometry"/>
                </mxCell>
                <mxCell id="130" value="Meters" style="shape=partialRectangle;connectable=0;fillColor=#f0a30a;top=0;left=0;bottom=0;right=0;editable=1;overflow=hidden;fontStyle=1;strokeColor=#BD7000;fontSize=13;fontColor=#000000;align=center;verticalAlign=middle;fontFamily=Helvetica;" parent="129" vertex="1">
                    <mxGeometry width="65" height="30" as="geometry">
                        <mxRectangle width="65" height="30" as="alternateBounds"/>
                    </mxGeometry>
                </mxCell>
                <mxCell id="131" value="id" style="shape=partialRectangle;connectable=0;fillColor=#0050ef;top=0;left=0;bottom=0;right=0;align=center;spacingLeft=6;overflow=hidden;fontColor=#ffffff;strokeColor=#001DBC;fontStyle=4;" parent="129" vertex="1">
                    <mxGeometry x="65" width="55" height="30" as="geometry">
                        <mxRectangle width="55" height="30" as="alternateBounds"/>
                    </mxGeometry>
                </mxCell>
                <mxCell id="132" value="block_id" style="shape=partialRectangle;connectable=0;top=0;left=0;bottom=0;right=0;align=center;spacingLeft=6;overflow=hidden;fillColor=#647687;fontColor=#ffffff;strokeColor=#314354;verticalAlign=middle;fontFamily=Helvetica;fontSize=12;" parent="129" vertex="1">
                    <mxGeometry x="120" width="69" height="30" as="geometry">
                        <mxRectangle width="69" height="30" as="alternateBounds"/>
                    </mxGeometry>
                </mxCell>
                <mxCell id="133" value="subscription_type_id" style="shape=partialRectangle;connectable=0;top=0;left=0;bottom=0;right=0;align=center;spacingLeft=6;overflow=hidden;fillColor=#647687;fontColor=#ffffff;strokeColor=#314354;verticalAlign=middle;fontFamily=Helvetica;fontSize=12;" parent="129" vertex="1">
                    <mxGeometry x="189" width="150" height="30" as="geometry">
                        <mxRectangle width="150" height="30" as="alternateBounds"/>
                    </mxGeometry>
                </mxCell>
                <mxCell id="134" value="contract_id" style="shape=partialRectangle;connectable=0;top=0;left=0;bottom=0;right=0;align=center;spacingLeft=6;overflow=hidden;fillColor=#647687;fontColor=#ffffff;strokeColor=#314354;verticalAlign=middle;fontFamily=Helvetica;fontSize=12;" parent="129" vertex="1">
                    <mxGeometry x="339" width="124" height="30" as="geometry">
                        <mxRectangle width="124" height="30" as="alternateBounds"/>
                    </mxGeometry>
                </mxCell>
                <mxCell id="135" value="meter_status_id" style="shape=partialRectangle;connectable=0;top=0;left=0;bottom=0;right=0;align=center;spacingLeft=6;overflow=hidden;fillColor=#647687;fontColor=#ffffff;strokeColor=#314354;verticalAlign=middle;fontFamily=Helvetica;fontSize=12;" parent="129" vertex="1">
                    <mxGeometry x="463" width="110" height="30" as="geometry">
                        <mxRectangle width="110" height="30" as="alternateBounds"/>
                    </mxGeometry>
                </mxCell>
                <mxCell id="136" value="subscriber_id" style="shape=partialRectangle;connectable=0;top=0;left=0;bottom=0;right=0;align=center;spacingLeft=6;overflow=hidden;fillColor=#647687;fontColor=#ffffff;strokeColor=#314354;verticalAlign=middle;fontFamily=Helvetica;fontSize=12;" parent="129" vertex="1">
                    <mxGeometry x="573" width="100" height="30" as="geometry">
                        <mxRectangle width="100" height="30" as="alternateBounds"/>
                    </mxGeometry>
                </mxCell>
                <mxCell id="137" value="date" style="shape=partialRectangle;connectable=0;top=0;left=0;bottom=0;right=0;align=center;spacingLeft=6;overflow=hidden;fillColor=#bac8d3;strokeColor=#23445d;verticalAlign=middle;fontFamily=Helvetica;fontSize=12;" parent="129" vertex="1">
                    <mxGeometry x="673" width="46" height="30" as="geometry">
                        <mxRectangle width="46" height="30" as="alternateBounds"/>
                    </mxGeometry>
                </mxCell>
                <mxCell id="138" style="shape=tableRow;horizontal=0;startSize=0;swimlaneHead=0;swimlaneBody=0;fillColor=none;collapsible=0;dropTarget=0;points=[[0,0.5],[1,0.5]];portConstraint=eastwest;top=0;left=0;right=0;bottom=0;" parent="128" vertex="1">
                    <mxGeometry y="30" width="719" height="30" as="geometry"/>
                </mxCell>
                <mxCell id="139" value="العدادات" style="shape=partialRectangle;connectable=0;fillColor=#f0a30a;top=0;left=0;bottom=0;right=0;editable=1;overflow=hidden;fontStyle=1;strokeColor=#BD7000;fontSize=13;fontColor=#000000;align=center;verticalAlign=middle;fontFamily=Helvetica;" parent="138" vertex="1">
                    <mxGeometry width="65" height="30" as="geometry">
                        <mxRectangle width="65" height="30" as="alternateBounds"/>
                    </mxGeometry>
                </mxCell>
                <mxCell id="140" value="الرقم" style="shape=partialRectangle;connectable=0;fillColor=#0050ef;top=0;left=0;bottom=0;right=0;align=center;spacingLeft=6;overflow=hidden;fontColor=#ffffff;strokeColor=#001DBC;fontStyle=4;" parent="138" vertex="1">
                    <mxGeometry x="65" width="55" height="30" as="geometry">
                        <mxRectangle width="55" height="30" as="alternateBounds"/>
                    </mxGeometry>
                </mxCell>
                <mxCell id="141" value="رقم المربع" style="shape=partialRectangle;connectable=0;top=0;left=0;bottom=0;right=0;align=center;spacingLeft=6;overflow=hidden;fillColor=#647687;fontColor=#ffffff;strokeColor=#314354;verticalAlign=middle;fontFamily=Helvetica;fontSize=12;" parent="138" vertex="1">
                    <mxGeometry x="120" width="69" height="30" as="geometry">
                        <mxRectangle width="69" height="30" as="alternateBounds"/>
                    </mxGeometry>
                </mxCell>
                <mxCell id="142" value="رقم نوع الاشتراك" style="shape=partialRectangle;connectable=0;top=0;left=0;bottom=0;right=0;align=center;spacingLeft=6;overflow=hidden;fillColor=#647687;fontColor=#ffffff;strokeColor=#314354;verticalAlign=middle;fontFamily=Helvetica;fontSize=12;" parent="138" vertex="1">
                    <mxGeometry x="189" width="150" height="30" as="geometry">
                        <mxRectangle width="150" height="30" as="alternateBounds"/>
                    </mxGeometry>
                </mxCell>
                <mxCell id="143" value="رقم العقد" style="shape=partialRectangle;connectable=0;top=0;left=0;bottom=0;right=0;align=center;spacingLeft=6;overflow=hidden;fillColor=#647687;fontColor=#ffffff;strokeColor=#314354;verticalAlign=middle;fontFamily=Helvetica;fontSize=12;" parent="138" vertex="1">
                    <mxGeometry x="339" width="124" height="30" as="geometry">
                        <mxRectangle width="124" height="30" as="alternateBounds"/>
                    </mxGeometry>
                </mxCell>
                <mxCell id="144" value="رقم حالة العداد" style="shape=partialRectangle;connectable=0;top=0;left=0;bottom=0;right=0;align=center;spacingLeft=6;overflow=hidden;fillColor=#647687;fontColor=#ffffff;strokeColor=#314354;verticalAlign=middle;fontFamily=Helvetica;fontSize=12;" parent="138" vertex="1">
                    <mxGeometry x="463" width="110" height="30" as="geometry">
                        <mxRectangle width="110" height="30" as="alternateBounds"/>
                    </mxGeometry>
                </mxCell>
                <mxCell id="145" value="رقم المشترك" style="shape=partialRectangle;connectable=0;top=0;left=0;bottom=0;right=0;align=center;spacingLeft=6;overflow=hidden;fillColor=#647687;fontColor=#ffffff;strokeColor=#314354;verticalAlign=middle;fontFamily=Helvetica;fontSize=12;" parent="138" vertex="1">
                    <mxGeometry x="573" width="100" height="30" as="geometry">
                        <mxRectangle width="100" height="30" as="alternateBounds"/>
                    </mxGeometry>
                </mxCell>
                <mxCell id="146" value="التاريخ" style="shape=partialRectangle;connectable=0;top=0;left=0;bottom=0;right=0;align=center;spacingLeft=6;overflow=hidden;fillColor=#bac8d3;strokeColor=#23445d;verticalAlign=middle;fontFamily=Helvetica;fontSize=12;" parent="138" vertex="1">
                    <mxGeometry x="673" width="46" height="30" as="geometry">
                        <mxRectangle width="46" height="30" as="alternateBounds"/>
                    </mxGeometry>
                </mxCell>
                <mxCell id="147" value="" style="shape=table;startSize=0;container=1;collapsible=1;childLayout=tableLayout;fixedRows=1;rowLines=0;fontStyle=0;align=center;resizeLast=1;strokeColor=light-dark(#001DBC,#000000);fillColor=#0050ef;collapsible=0;fontColor=#ffffff;" parent="1" vertex="1">
                    <mxGeometry x="468.87" y="450" width="318" height="60" as="geometry"/>
                </mxCell>
                <mxCell id="148" value="" style="shape=tableRow;horizontal=0;startSize=0;swimlaneHead=0;swimlaneBody=0;fillColor=none;collapsible=0;dropTarget=0;points=[[0,0.5],[1,0.5]];portConstraint=eastwest;top=0;left=0;right=0;bottom=0;" parent="147" vertex="1">
                    <mxGeometry width="318" height="30" as="geometry"/>
                </mxCell>
                <mxCell id="149" value="MeterStatus" style="shape=partialRectangle;connectable=0;fillColor=#f0a30a;top=0;left=0;bottom=0;right=0;editable=1;overflow=hidden;fontStyle=1;strokeColor=#BD7000;fontSize=13;fontColor=#000000;align=center;verticalAlign=middle;fontFamily=Helvetica;" parent="148" vertex="1">
                    <mxGeometry width="91.00000000000023" height="30" as="geometry">
                        <mxRectangle width="91.00000000000023" height="30" as="alternateBounds"/>
                    </mxGeometry>
                </mxCell>
                <mxCell id="150" value="id" style="shape=partialRectangle;connectable=0;fillColor=#0050ef;top=0;left=0;bottom=0;right=0;align=center;spacingLeft=6;overflow=hidden;fontColor=#ffffff;strokeColor=#001DBC;fontStyle=4;" parent="148" vertex="1">
                    <mxGeometry x="91.00000000000023" width="39.99999999999977" height="30" as="geometry">
                        <mxRectangle width="39.99999999999977" height="30" as="alternateBounds"/>
                    </mxGeometry>
                </mxCell>
                <mxCell id="151" value="name" style="shape=partialRectangle;connectable=0;top=0;left=0;bottom=0;right=0;align=center;spacingLeft=6;overflow=hidden;fillColor=#bac8d3;strokeColor=#23445d;" parent="148" vertex="1">
                    <mxGeometry x="131" width="60" height="30" as="geometry">
                        <mxRectangle width="60" height="30" as="alternateBounds"/>
                    </mxGeometry>
                </mxCell>
                <mxCell id="152" value="note" style="shape=partialRectangle;connectable=0;top=0;left=0;bottom=0;right=0;align=center;spacingLeft=6;overflow=hidden;fillColor=#bac8d3;strokeColor=#23445d;" parent="148" vertex="1">
                    <mxGeometry x="191" width="80" height="30" as="geometry">
                        <mxRectangle width="80" height="30" as="alternateBounds"/>
                    </mxGeometry>
                </mxCell>
                <mxCell id="153" value="date" style="shape=partialRectangle;connectable=0;top=0;left=0;bottom=0;right=0;align=center;spacingLeft=6;overflow=hidden;fillColor=#bac8d3;strokeColor=#23445d;verticalAlign=middle;fontFamily=Helvetica;fontSize=12;" parent="148" vertex="1">
                    <mxGeometry x="271" width="47" height="30" as="geometry">
                        <mxRectangle width="47" height="30" as="alternateBounds"/>
                    </mxGeometry>
                </mxCell>
                <mxCell id="154" style="shape=tableRow;horizontal=0;startSize=0;swimlaneHead=0;swimlaneBody=0;fillColor=none;collapsible=0;dropTarget=0;points=[[0,0.5],[1,0.5]];portConstraint=eastwest;top=0;left=0;right=0;bottom=0;" parent="147" vertex="1">
                    <mxGeometry y="30" width="318" height="30" as="geometry"/>
                </mxCell>
                <mxCell id="155" value="حالات العداد" style="shape=partialRectangle;connectable=0;fillColor=#f0a30a;top=0;left=0;bottom=0;right=0;editable=1;overflow=hidden;fontStyle=1;strokeColor=#BD7000;fontSize=13;fontColor=#000000;align=center;verticalAlign=middle;fontFamily=Helvetica;" parent="154" vertex="1">
                    <mxGeometry width="91.00000000000023" height="30" as="geometry">
                        <mxRectangle width="91.00000000000023" height="30" as="alternateBounds"/>
                    </mxGeometry>
                </mxCell>
                <mxCell id="156" value="الرقم" style="shape=partialRectangle;connectable=0;fillColor=#0050ef;top=0;left=0;bottom=0;right=0;align=center;spacingLeft=6;overflow=hidden;fontColor=#ffffff;strokeColor=#001DBC;fontStyle=4;" parent="154" vertex="1">
                    <mxGeometry x="91.00000000000023" width="39.99999999999977" height="30" as="geometry">
                        <mxRectangle width="39.99999999999977" height="30" as="alternateBounds"/>
                    </mxGeometry>
                </mxCell>
                <mxCell id="157" value="الاسم" style="shape=partialRectangle;connectable=0;top=0;left=0;bottom=0;right=0;align=center;spacingLeft=6;overflow=hidden;fillColor=#bac8d3;strokeColor=#23445d;" parent="154" vertex="1">
                    <mxGeometry x="131" width="60" height="30" as="geometry">
                        <mxRectangle width="60" height="30" as="alternateBounds"/>
                    </mxGeometry>
                </mxCell>
                <mxCell id="158" value="ملاحظات" style="shape=partialRectangle;connectable=0;top=0;left=0;bottom=0;right=0;align=center;spacingLeft=6;overflow=hidden;fillColor=#bac8d3;strokeColor=#23445d;" parent="154" vertex="1">
                    <mxGeometry x="191" width="80" height="30" as="geometry">
                        <mxRectangle width="80" height="30" as="alternateBounds"/>
                    </mxGeometry>
                </mxCell>
                <mxCell id="159" value="التاريخ" style="shape=partialRectangle;connectable=0;top=0;left=0;bottom=0;right=0;align=center;spacingLeft=6;overflow=hidden;fillColor=#bac8d3;strokeColor=#23445d;verticalAlign=middle;fontFamily=Helvetica;fontSize=12;" parent="154" vertex="1">
                    <mxGeometry x="271" width="47" height="30" as="geometry">
                        <mxRectangle width="47" height="30" as="alternateBounds"/>
                    </mxGeometry>
                </mxCell>
                <mxCell id="160" style="edgeStyle=elbowEdgeStyle;html=1;entryX=0.218;entryY=-0.011;entryDx=0;entryDy=0;entryPerimeter=0;rounded=0;elbow=vertical;exitX=0.168;exitY=1.069;exitDx=0;exitDy=0;exitPerimeter=0;" parent="1" source="34" target="128" edge="1">
                    <mxGeometry relative="1" as="geometry">
                        <Array as="points">
                            <mxPoint x="170" y="422"/>
                        </Array>
                        <mxPoint x="140" y="342" as="sourcePoint"/>
                    </mxGeometry>
                </mxCell>
                <mxCell id="161" style="edgeStyle=elbowEdgeStyle;html=1;entryX=0.334;entryY=-0.046;entryDx=0;entryDy=0;entryPerimeter=0;rounded=0;elbow=vertical;exitX=0.299;exitY=1.055;exitDx=0;exitDy=0;exitPerimeter=0;" parent="1" source="49" target="128" edge="1">
                    <mxGeometry relative="1" as="geometry">
                        <Array as="points">
                            <mxPoint x="500" y="320"/>
                        </Array>
                        <mxPoint x="723" y="352" as="sourcePoint"/>
                    </mxGeometry>
                </mxCell>
                <mxCell id="162" style="edgeStyle=elbowEdgeStyle;html=1;entryX=0.865;entryY=-0.02;entryDx=0;entryDy=0;entryPerimeter=0;rounded=0;elbow=vertical;exitX=0.25;exitY=1;exitDx=0;exitDy=0;" parent="1" source="79" target="128" edge="1">
                    <mxGeometry relative="1" as="geometry">
                        <mxPoint x="661" y="512" as="sourcePoint"/>
                        <Array as="points"/>
                    </mxGeometry>
                </mxCell>
                <mxCell id="163" value="" style="shape=table;startSize=0;container=1;collapsible=1;childLayout=tableLayout;fixedRows=1;rowLines=0;fontStyle=0;align=center;resizeLast=1;strokeColor=light-dark(#001DBC,#000000);fillColor=#0050ef;collapsible=0;fontColor=#ffffff;" parent="1" vertex="1">
                    <mxGeometry x="60" y="770" width="695" height="60" as="geometry"/>
                </mxCell>
                <mxCell id="164" value="" style="shape=tableRow;horizontal=0;startSize=0;swimlaneHead=0;swimlaneBody=0;fillColor=none;collapsible=0;dropTarget=0;points=[[0,0.5],[1,0.5]];portConstraint=eastwest;top=0;left=0;right=0;bottom=0;" parent="163" vertex="1">
                    <mxGeometry width="695" height="30" as="geometry"/>
                </mxCell>
                <mxCell id="165" value="Invoices" style="shape=partialRectangle;connectable=0;fillColor=#f0a30a;top=0;left=0;bottom=0;right=0;editable=1;overflow=hidden;fontStyle=1;strokeColor=#BD7000;fontSize=13;fontColor=#000000;align=center;verticalAlign=middle;fontFamily=Helvetica;" parent="164" vertex="1">
                    <mxGeometry width="80" height="30" as="geometry">
                        <mxRectangle width="80" height="30" as="alternateBounds"/>
                    </mxGeometry>
                </mxCell>
                <mxCell id="166" value="id" style="shape=partialRectangle;connectable=0;fillColor=#0050ef;top=0;left=0;bottom=0;right=0;align=center;spacingLeft=6;overflow=hidden;fontColor=#ffffff;strokeColor=#001DBC;fontStyle=4;" parent="164" vertex="1">
                    <mxGeometry x="80" width="55" height="30" as="geometry">
                        <mxRectangle width="55" height="30" as="alternateBounds"/>
                    </mxGeometry>
                </mxCell>
                <mxCell id="167" value="meter_id" style="shape=partialRectangle;connectable=0;top=0;left=0;bottom=0;right=0;align=center;spacingLeft=6;overflow=hidden;fillColor=#647687;fontColor=#ffffff;strokeColor=#314354;" parent="164" vertex="1">
                    <mxGeometry x="135" width="60" height="30" as="geometry">
                        <mxRectangle width="60" height="30" as="alternateBounds"/>
                    </mxGeometry>
                </mxCell>
                <mxCell id="168" value="consumed" style="shape=partialRectangle;connectable=0;top=0;left=0;bottom=0;right=0;align=center;spacingLeft=6;overflow=hidden;fillColor=#bac8d3;strokeColor=#23445d;verticalAlign=middle;fontFamily=Helvetica;fontSize=12;" parent="164" vertex="1">
                    <mxGeometry x="195" width="80" height="30" as="geometry">
                        <mxRectangle width="80" height="30" as="alternateBounds"/>
                    </mxGeometry>
                </mxCell>
                <mxCell id="169" value="consumed_price" style="shape=partialRectangle;connectable=0;top=0;left=0;bottom=0;right=0;align=center;spacingLeft=6;overflow=hidden;fillColor=#bac8d3;strokeColor=#23445d;verticalAlign=middle;fontFamily=Helvetica;fontSize=12;" parent="164" vertex="1">
                    <mxGeometry x="275" width="110" height="30" as="geometry">
                        <mxRectangle width="110" height="30" as="alternateBounds"/>
                    </mxGeometry>
                </mxCell>
                <mxCell id="170" value="unit_price" style="shape=partialRectangle;connectable=0;top=0;left=0;bottom=0;right=0;align=center;spacingLeft=6;overflow=hidden;fillColor=#bac8d3;strokeColor=#23445d;verticalAlign=middle;fontFamily=Helvetica;fontSize=12;" parent="164" vertex="1">
                    <mxGeometry x="385" width="70" height="30" as="geometry">
                        <mxRectangle width="70" height="30" as="alternateBounds"/>
                    </mxGeometry>
                </mxCell>
                <mxCell id="171" value="service_fees" style="shape=partialRectangle;connectable=0;top=0;left=0;bottom=0;right=0;align=center;spacingLeft=6;overflow=hidden;fillColor=#bac8d3;strokeColor=#23445d;verticalAlign=middle;fontFamily=Helvetica;fontSize=12;" parent="164" vertex="1">
                    <mxGeometry x="455" width="70" height="30" as="geometry">
                        <mxRectangle width="70" height="30" as="alternateBounds"/>
                    </mxGeometry>
                </mxCell>
                <mxCell id="172" value="total" style="shape=partialRectangle;connectable=0;top=0;left=0;bottom=0;right=0;align=center;spacingLeft=6;overflow=hidden;fillColor=#bac8d3;strokeColor=#23445d;verticalAlign=middle;fontFamily=Helvetica;fontSize=12;" parent="164" vertex="1">
                    <mxGeometry x="525" width="60" height="30" as="geometry">
                        <mxRectangle width="60" height="30" as="alternateBounds"/>
                    </mxGeometry>
                </mxCell>
                <mxCell id="173" value="residual" style="shape=partialRectangle;connectable=0;top=0;left=0;bottom=0;right=0;align=center;spacingLeft=6;overflow=hidden;fillColor=#bac8d3;strokeColor=#23445d;verticalAlign=middle;fontFamily=Helvetica;fontSize=12;" parent="164" vertex="1">
                    <mxGeometry x="585" width="60" height="30" as="geometry">
                        <mxRectangle width="60" height="30" as="alternateBounds"/>
                    </mxGeometry>
                </mxCell>
                <mxCell id="174" value="date" style="shape=partialRectangle;connectable=0;top=0;left=0;bottom=0;right=0;align=center;spacingLeft=6;overflow=hidden;fillColor=#bac8d3;strokeColor=#23445d;verticalAlign=middle;fontFamily=Helvetica;fontSize=12;" parent="164" vertex="1">
                    <mxGeometry x="645" width="50" height="30" as="geometry">
                        <mxRectangle width="50" height="30" as="alternateBounds"/>
                    </mxGeometry>
                </mxCell>
                <mxCell id="175" style="shape=tableRow;horizontal=0;startSize=0;swimlaneHead=0;swimlaneBody=0;fillColor=none;collapsible=0;dropTarget=0;points=[[0,0.5],[1,0.5]];portConstraint=eastwest;top=0;left=0;right=0;bottom=0;" parent="163" vertex="1">
                    <mxGeometry y="30" width="695" height="30" as="geometry"/>
                </mxCell>
                <mxCell id="176" value="الفواتير" style="shape=partialRectangle;connectable=0;fillColor=#f0a30a;top=0;left=0;bottom=0;right=0;editable=1;overflow=hidden;fontStyle=1;strokeColor=#BD7000;fontSize=13;fontColor=#000000;align=center;verticalAlign=middle;fontFamily=Helvetica;" parent="175" vertex="1">
                    <mxGeometry width="80" height="30" as="geometry">
                        <mxRectangle width="80" height="30" as="alternateBounds"/>
                    </mxGeometry>
                </mxCell>
                <mxCell id="177" value="الرقم" style="shape=partialRectangle;connectable=0;fillColor=#0050ef;top=0;left=0;bottom=0;right=0;align=center;spacingLeft=6;overflow=hidden;fontColor=#ffffff;strokeColor=#001DBC;fontStyle=4;" parent="175" vertex="1">
                    <mxGeometry x="80" width="55" height="30" as="geometry">
                        <mxRectangle width="55" height="30" as="alternateBounds"/>
                    </mxGeometry>
                </mxCell>
                <mxCell id="178" value="رقم العداد" style="shape=partialRectangle;connectable=0;top=0;left=0;bottom=0;right=0;align=center;spacingLeft=6;overflow=hidden;fillColor=#647687;fontColor=#ffffff;strokeColor=#314354;" parent="175" vertex="1">
                    <mxGeometry x="135" width="60" height="30" as="geometry">
                        <mxRectangle width="60" height="30" as="alternateBounds"/>
                    </mxGeometry>
                </mxCell>
                <mxCell id="179" value="كمية الاستهلاك" style="shape=partialRectangle;connectable=0;top=0;left=0;bottom=0;right=0;align=center;spacingLeft=6;overflow=hidden;fillColor=#bac8d3;strokeColor=#23445d;verticalAlign=middle;fontFamily=Helvetica;fontSize=12;" parent="175" vertex="1">
                    <mxGeometry x="195" width="80" height="30" as="geometry">
                        <mxRectangle width="80" height="30" as="alternateBounds"/>
                    </mxGeometry>
                </mxCell>
                <mxCell id="180" value="مبلغ الاستهلاك" style="shape=partialRectangle;connectable=0;top=0;left=0;bottom=0;right=0;align=center;spacingLeft=6;overflow=hidden;fillColor=#bac8d3;strokeColor=#23445d;verticalAlign=middle;fontFamily=Helvetica;fontSize=12;" parent="175" vertex="1">
                    <mxGeometry x="275" width="110" height="30" as="geometry">
                        <mxRectangle width="110" height="30" as="alternateBounds"/>
                    </mxGeometry>
                </mxCell>
                <mxCell id="181" value="سعر الوحدة" style="shape=partialRectangle;connectable=0;top=0;left=0;bottom=0;right=0;align=center;spacingLeft=6;overflow=hidden;fillColor=#bac8d3;strokeColor=#23445d;verticalAlign=middle;fontFamily=Helvetica;fontSize=12;" parent="175" vertex="1">
                    <mxGeometry x="385" width="70" height="30" as="geometry">
                        <mxRectangle width="70" height="30" as="alternateBounds"/>
                    </mxGeometry>
                </mxCell>
                <mxCell id="182" value="رسوم الخدمة" style="shape=partialRectangle;connectable=0;top=0;left=0;bottom=0;right=0;align=center;spacingLeft=6;overflow=hidden;fillColor=#bac8d3;strokeColor=#23445d;verticalAlign=middle;fontFamily=Helvetica;fontSize=12;" parent="175" vertex="1">
                    <mxGeometry x="455" width="70" height="30" as="geometry">
                        <mxRectangle width="70" height="30" as="alternateBounds"/>
                    </mxGeometry>
                </mxCell>
                <mxCell id="183" value="الاجمالي" style="shape=partialRectangle;connectable=0;top=0;left=0;bottom=0;right=0;align=center;spacingLeft=6;overflow=hidden;fillColor=#bac8d3;strokeColor=#23445d;verticalAlign=middle;fontFamily=Helvetica;fontSize=12;" parent="175" vertex="1">
                    <mxGeometry x="525" width="60" height="30" as="geometry">
                        <mxRectangle width="60" height="30" as="alternateBounds"/>
                    </mxGeometry>
                </mxCell>
                <mxCell id="184" value="المتبقي" style="shape=partialRectangle;connectable=0;top=0;left=0;bottom=0;right=0;align=center;spacingLeft=6;overflow=hidden;fillColor=#bac8d3;strokeColor=#23445d;verticalAlign=middle;fontFamily=Helvetica;fontSize=12;" parent="175" vertex="1">
                    <mxGeometry x="585" width="60" height="30" as="geometry">
                        <mxRectangle width="60" height="30" as="alternateBounds"/>
                    </mxGeometry>
                </mxCell>
                <mxCell id="185" value="التاريخ" style="shape=partialRectangle;connectable=0;top=0;left=0;bottom=0;right=0;align=center;spacingLeft=6;overflow=hidden;fillColor=#bac8d3;strokeColor=#23445d;verticalAlign=middle;fontFamily=Helvetica;fontSize=12;" parent="175" vertex="1">
                    <mxGeometry x="645" width="50" height="30" as="geometry">
                        <mxRectangle width="50" height="30" as="alternateBounds"/>
                    </mxGeometry>
                </mxCell>
                <mxCell id="186" value="" style="shape=table;startSize=0;container=1;collapsible=1;childLayout=tableLayout;fixedRows=1;rowLines=0;fontStyle=0;align=center;resizeLast=1;strokeColor=light-dark(#001DBC,#000000);fillColor=#0050ef;collapsible=0;fontColor=#ffffff;" parent="1" vertex="1">
                    <mxGeometry x="1210" y="530" width="420" height="60" as="geometry"/>
                </mxCell>
                <mxCell id="187" value="" style="shape=tableRow;horizontal=0;startSize=0;swimlaneHead=0;swimlaneBody=0;fillColor=none;collapsible=0;dropTarget=0;points=[[0,0.5],[1,0.5]];portConstraint=eastwest;top=0;left=0;right=0;bottom=0;" parent="186" vertex="1">
                    <mxGeometry width="420" height="30" as="geometry"/>
                </mxCell>
                <mxCell id="188" value="Services" style="shape=partialRectangle;connectable=0;fillColor=#f0a30a;top=0;left=0;bottom=0;right=0;editable=1;overflow=hidden;fontStyle=1;strokeColor=#BD7000;fontSize=13;fontColor=#000000;align=center;verticalAlign=middle;fontFamily=Helvetica;" parent="187" vertex="1">
                    <mxGeometry width="65.25" height="30" as="geometry">
                        <mxRectangle width="65.25" height="30" as="alternateBounds"/>
                    </mxGeometry>
                </mxCell>
                <mxCell id="189" value="id" style="shape=partialRectangle;connectable=0;fillColor=#0050ef;top=0;left=0;bottom=0;right=0;align=center;spacingLeft=6;overflow=hidden;fontColor=#ffffff;strokeColor=#001DBC;fontStyle=4;" parent="187" vertex="1">
                    <mxGeometry x="65.25" width="34.75" height="30" as="geometry">
                        <mxRectangle width="34.75" height="30" as="alternateBounds"/>
                    </mxGeometry>
                </mxCell>
                <mxCell id="190" value="name" style="shape=partialRectangle;connectable=0;top=0;left=0;bottom=0;right=0;align=center;spacingLeft=6;overflow=hidden;fillColor=#bac8d3;strokeColor=#23445d;" parent="187" vertex="1">
                    <mxGeometry x="100" width="70" height="30" as="geometry">
                        <mxRectangle width="70" height="30" as="alternateBounds"/>
                    </mxGeometry>
                </mxCell>
                <mxCell id="191" value="price" style="shape=partialRectangle;connectable=0;top=0;left=0;bottom=0;right=0;align=center;spacingLeft=6;overflow=hidden;fillColor=#bac8d3;strokeColor=#23445d;verticalAlign=middle;fontFamily=Helvetica;fontSize=12;" parent="187" vertex="1">
                    <mxGeometry x="170" width="50" height="30" as="geometry">
                        <mxRectangle width="50" height="30" as="alternateBounds"/>
                    </mxGeometry>
                </mxCell>
                <mxCell id="192" value="note" style="shape=partialRectangle;connectable=0;top=0;left=0;bottom=0;right=0;align=center;spacingLeft=6;overflow=hidden;fillColor=#bac8d3;strokeColor=#23445d;verticalAlign=middle;fontFamily=Helvetica;fontSize=12;" parent="187" vertex="1">
                    <mxGeometry x="220" width="80" height="30" as="geometry">
                        <mxRectangle width="80" height="30" as="alternateBounds"/>
                    </mxGeometry>
                </mxCell>
                <mxCell id="193" value="status" style="shape=partialRectangle;connectable=0;top=0;left=0;bottom=0;right=0;align=center;spacingLeft=6;overflow=hidden;fillColor=#bac8d3;strokeColor=#23445d;verticalAlign=middle;fontFamily=Helvetica;fontSize=12;" parent="187" vertex="1">
                    <mxGeometry x="300" width="70" height="30" as="geometry">
                        <mxRectangle width="70" height="30" as="alternateBounds"/>
                    </mxGeometry>
                </mxCell>
                <mxCell id="194" value="date" style="shape=partialRectangle;connectable=0;top=0;left=0;bottom=0;right=0;align=center;spacingLeft=6;overflow=hidden;fillColor=#bac8d3;strokeColor=#23445d;verticalAlign=middle;fontFamily=Helvetica;fontSize=12;" parent="187" vertex="1">
                    <mxGeometry x="370" width="50" height="30" as="geometry">
                        <mxRectangle width="50" height="30" as="alternateBounds"/>
                    </mxGeometry>
                </mxCell>
                <mxCell id="195" style="shape=tableRow;horizontal=0;startSize=0;swimlaneHead=0;swimlaneBody=0;fillColor=none;collapsible=0;dropTarget=0;points=[[0,0.5],[1,0.5]];portConstraint=eastwest;top=0;left=0;right=0;bottom=0;" parent="186" vertex="1">
                    <mxGeometry y="30" width="420" height="30" as="geometry"/>
                </mxCell>
                <mxCell id="196" value="الخدمات" style="shape=partialRectangle;connectable=0;fillColor=#f0a30a;top=0;left=0;bottom=0;right=0;editable=1;overflow=hidden;fontStyle=1;strokeColor=#BD7000;fontSize=13;fontColor=#000000;align=center;verticalAlign=middle;fontFamily=Helvetica;" parent="195" vertex="1">
                    <mxGeometry width="65.25" height="30" as="geometry">
                        <mxRectangle width="65.25" height="30" as="alternateBounds"/>
                    </mxGeometry>
                </mxCell>
                <mxCell id="197" value="الرقم" style="shape=partialRectangle;connectable=0;fillColor=#0050ef;top=0;left=0;bottom=0;right=0;align=center;spacingLeft=6;overflow=hidden;fontColor=#ffffff;strokeColor=#001DBC;fontStyle=4;" parent="195" vertex="1">
                    <mxGeometry x="65.25" width="34.75" height="30" as="geometry">
                        <mxRectangle width="34.75" height="30" as="alternateBounds"/>
                    </mxGeometry>
                </mxCell>
                <mxCell id="198" value="الاسم" style="shape=partialRectangle;connectable=0;top=0;left=0;bottom=0;right=0;align=center;spacingLeft=6;overflow=hidden;fillColor=#bac8d3;strokeColor=#23445d;" parent="195" vertex="1">
                    <mxGeometry x="100" width="70" height="30" as="geometry">
                        <mxRectangle width="70" height="30" as="alternateBounds"/>
                    </mxGeometry>
                </mxCell>
                <mxCell id="199" value="السعر" style="shape=partialRectangle;connectable=0;top=0;left=0;bottom=0;right=0;align=center;spacingLeft=6;overflow=hidden;fillColor=#bac8d3;strokeColor=#23445d;verticalAlign=middle;fontFamily=Helvetica;fontSize=12;" parent="195" vertex="1">
                    <mxGeometry x="170" width="50" height="30" as="geometry">
                        <mxRectangle width="50" height="30" as="alternateBounds"/>
                    </mxGeometry>
                </mxCell>
                <mxCell id="200" value="ملاحظة" style="shape=partialRectangle;connectable=0;top=0;left=0;bottom=0;right=0;align=center;spacingLeft=6;overflow=hidden;fillColor=#bac8d3;strokeColor=#23445d;verticalAlign=middle;fontFamily=Helvetica;fontSize=12;" parent="195" vertex="1">
                    <mxGeometry x="220" width="80" height="30" as="geometry">
                        <mxRectangle width="80" height="30" as="alternateBounds"/>
                    </mxGeometry>
                </mxCell>
                <mxCell id="201" value="حالة الخدمة" style="shape=partialRectangle;connectable=0;top=0;left=0;bottom=0;right=0;align=center;spacingLeft=6;overflow=hidden;fillColor=#bac8d3;strokeColor=#23445d;verticalAlign=middle;fontFamily=Helvetica;fontSize=12;" parent="195" vertex="1">
                    <mxGeometry x="300" width="70" height="30" as="geometry">
                        <mxRectangle width="70" height="30" as="alternateBounds"/>
                    </mxGeometry>
                </mxCell>
                <mxCell id="202" value="التاريخ" style="shape=partialRectangle;connectable=0;top=0;left=0;bottom=0;right=0;align=center;spacingLeft=6;overflow=hidden;fillColor=#bac8d3;strokeColor=#23445d;verticalAlign=middle;fontFamily=Helvetica;fontSize=12;" parent="195" vertex="1">
                    <mxGeometry x="370" width="50" height="30" as="geometry">
                        <mxRectangle width="50" height="30" as="alternateBounds"/>
                    </mxGeometry>
                </mxCell>
                <mxCell id="203" value="" style="shape=table;startSize=0;container=1;collapsible=1;childLayout=tableLayout;fixedRows=1;rowLines=0;fontStyle=0;align=center;resizeLast=1;strokeColor=light-dark(#001DBC,#000000);fillColor=#0050ef;collapsible=0;fontColor=#ffffff;" parent="1" vertex="1">
                    <mxGeometry x="1210" y="690" width="579" height="60" as="geometry"/>
                </mxCell>
                <mxCell id="204" value="" style="shape=tableRow;horizontal=0;startSize=0;swimlaneHead=0;swimlaneBody=0;fillColor=none;collapsible=0;dropTarget=0;points=[[0,0.5],[1,0.5]];portConstraint=eastwest;top=0;left=0;right=0;bottom=0;" parent="203" vertex="1">
                    <mxGeometry width="579" height="30" as="geometry"/>
                </mxCell>
                <mxCell id="205" value="ServiceRequests" style="shape=partialRectangle;connectable=0;fillColor=#f0a30a;top=0;left=0;bottom=0;right=0;editable=1;overflow=hidden;fontStyle=1;strokeColor=#BD7000;fontSize=13;fontColor=#000000;align=center;verticalAlign=middle;fontFamily=Helvetica;" parent="204" vertex="1">
                    <mxGeometry width="120" height="30" as="geometry">
                        <mxRectangle width="120" height="30" as="alternateBounds"/>
                    </mxGeometry>
                </mxCell>
                <mxCell id="206" value="id" style="shape=partialRectangle;connectable=0;fillColor=#0050ef;top=0;left=0;bottom=0;right=0;align=center;spacingLeft=6;overflow=hidden;fontColor=#ffffff;strokeColor=#001DBC;fontStyle=4;" parent="204" vertex="1">
                    <mxGeometry x="120" width="40" height="30" as="geometry">
                        <mxRectangle width="40" height="30" as="alternateBounds"/>
                    </mxGeometry>
                </mxCell>
                <mxCell id="207" value="subscriber_id" style="shape=partialRectangle;connectable=0;top=0;left=0;bottom=0;right=0;align=center;spacingLeft=6;overflow=hidden;fillColor=#647687;fontColor=#ffffff;strokeColor=#314354;" parent="204" vertex="1">
                    <mxGeometry x="160" width="90" height="30" as="geometry">
                        <mxRectangle width="90" height="30" as="alternateBounds"/>
                    </mxGeometry>
                </mxCell>
                <mxCell id="208" value="service_id" style="shape=partialRectangle;connectable=0;top=0;left=0;bottom=0;right=0;align=center;spacingLeft=6;overflow=hidden;fillColor=#647687;fontColor=#ffffff;strokeColor=#314354;" parent="204" vertex="1">
                    <mxGeometry x="250" width="74" height="30" as="geometry">
                        <mxRectangle width="74" height="30" as="alternateBounds"/>
                    </mxGeometry>
                </mxCell>
                <mxCell id="209" value="applicant_name" style="shape=partialRectangle;connectable=0;top=0;left=0;bottom=0;right=0;align=center;spacingLeft=6;overflow=hidden;fillColor=#bac8d3;strokeColor=#23445d;verticalAlign=middle;fontFamily=Helvetica;fontSize=12;" parent="204" vertex="1">
                    <mxGeometry x="324" width="100" height="30" as="geometry">
                        <mxRectangle width="100" height="30" as="alternateBounds"/>
                    </mxGeometry>
                </mxCell>
                <mxCell id="210" value="status" style="shape=partialRectangle;connectable=0;top=0;left=0;bottom=0;right=0;align=center;spacingLeft=6;overflow=hidden;fillColor=#bac8d3;strokeColor=#23445d;verticalAlign=middle;fontFamily=Helvetica;fontSize=12;" parent="204" vertex="1">
                    <mxGeometry x="424" width="60" height="30" as="geometry">
                        <mxRectangle width="60" height="30" as="alternateBounds"/>
                    </mxGeometry>
                </mxCell>
                <mxCell id="211" value="note" style="shape=partialRectangle;connectable=0;top=0;left=0;bottom=0;right=0;align=center;spacingLeft=6;overflow=hidden;fillColor=#bac8d3;strokeColor=#23445d;verticalAlign=middle;fontFamily=Helvetica;fontSize=12;" parent="204" vertex="1">
                    <mxGeometry x="484" width="50" height="30" as="geometry">
                        <mxRectangle width="50" height="30" as="alternateBounds"/>
                    </mxGeometry>
                </mxCell>
                <mxCell id="212" value="date" style="shape=partialRectangle;connectable=0;top=0;left=0;bottom=0;right=0;align=center;spacingLeft=6;overflow=hidden;fillColor=#bac8d3;strokeColor=#23445d;verticalAlign=middle;fontFamily=Helvetica;fontSize=12;" parent="204" vertex="1">
                    <mxGeometry x="534" width="45" height="30" as="geometry">
                        <mxRectangle width="45" height="30" as="alternateBounds"/>
                    </mxGeometry>
                </mxCell>
                <mxCell id="213" style="shape=tableRow;horizontal=0;startSize=0;swimlaneHead=0;swimlaneBody=0;fillColor=none;collapsible=0;dropTarget=0;points=[[0,0.5],[1,0.5]];portConstraint=eastwest;top=0;left=0;right=0;bottom=0;" parent="203" vertex="1">
                    <mxGeometry y="30" width="579" height="30" as="geometry"/>
                </mxCell>
                <mxCell id="214" value="طلبات الخدمات" style="shape=partialRectangle;connectable=0;fillColor=#f0a30a;top=0;left=0;bottom=0;right=0;editable=1;overflow=hidden;fontStyle=1;strokeColor=#BD7000;fontSize=13;fontColor=#000000;align=center;verticalAlign=middle;fontFamily=Helvetica;" parent="213" vertex="1">
                    <mxGeometry width="120" height="30" as="geometry">
                        <mxRectangle width="120" height="30" as="alternateBounds"/>
                    </mxGeometry>
                </mxCell>
                <mxCell id="215" value="الرقم" style="shape=partialRectangle;connectable=0;fillColor=#0050ef;top=0;left=0;bottom=0;right=0;align=center;spacingLeft=6;overflow=hidden;fontColor=#ffffff;strokeColor=#001DBC;fontStyle=4;" parent="213" vertex="1">
                    <mxGeometry x="120" width="40" height="30" as="geometry">
                        <mxRectangle width="40" height="30" as="alternateBounds"/>
                    </mxGeometry>
                </mxCell>
                <mxCell id="216" value="رقم المشترك" style="shape=partialRectangle;connectable=0;top=0;left=0;bottom=0;right=0;align=center;spacingLeft=6;overflow=hidden;fillColor=#647687;fontColor=#ffffff;strokeColor=#314354;" parent="213" vertex="1">
                    <mxGeometry x="160" width="90" height="30" as="geometry">
                        <mxRectangle width="90" height="30" as="alternateBounds"/>
                    </mxGeometry>
                </mxCell>
                <mxCell id="217" value="رقم الخدمة" style="shape=partialRectangle;connectable=0;top=0;left=0;bottom=0;right=0;align=center;spacingLeft=6;overflow=hidden;fillColor=#647687;fontColor=#ffffff;strokeColor=#314354;" parent="213" vertex="1">
                    <mxGeometry x="250" width="74" height="30" as="geometry">
                        <mxRectangle width="74" height="30" as="alternateBounds"/>
                    </mxGeometry>
                </mxCell>
                <mxCell id="218" value="اسم طالب الخدمة" style="shape=partialRectangle;connectable=0;top=0;left=0;bottom=0;right=0;align=center;spacingLeft=6;overflow=hidden;fillColor=#bac8d3;strokeColor=#23445d;verticalAlign=middle;fontFamily=Helvetica;fontSize=12;" parent="213" vertex="1">
                    <mxGeometry x="324" width="100" height="30" as="geometry">
                        <mxRectangle width="100" height="30" as="alternateBounds"/>
                    </mxGeometry>
                </mxCell>
                <mxCell id="219" value="حالة الطلب" style="shape=partialRectangle;connectable=0;top=0;left=0;bottom=0;right=0;align=center;spacingLeft=6;overflow=hidden;fillColor=#bac8d3;strokeColor=#23445d;verticalAlign=middle;fontFamily=Helvetica;fontSize=12;" parent="213" vertex="1">
                    <mxGeometry x="424" width="60" height="30" as="geometry">
                        <mxRectangle width="60" height="30" as="alternateBounds"/>
                    </mxGeometry>
                </mxCell>
                <mxCell id="220" value="ملاحظة" style="shape=partialRectangle;connectable=0;top=0;left=0;bottom=0;right=0;align=center;spacingLeft=6;overflow=hidden;fillColor=#bac8d3;strokeColor=#23445d;verticalAlign=middle;fontFamily=Helvetica;fontSize=12;" parent="213" vertex="1">
                    <mxGeometry x="484" width="50" height="30" as="geometry">
                        <mxRectangle width="50" height="30" as="alternateBounds"/>
                    </mxGeometry>
                </mxCell>
                <mxCell id="221" value="التاريخ" style="shape=partialRectangle;connectable=0;top=0;left=0;bottom=0;right=0;align=center;spacingLeft=6;overflow=hidden;fillColor=#bac8d3;strokeColor=#23445d;verticalAlign=middle;fontFamily=Helvetica;fontSize=12;" parent="213" vertex="1">
                    <mxGeometry x="534" width="45" height="30" as="geometry">
                        <mxRectangle width="45" height="30" as="alternateBounds"/>
                    </mxGeometry>
                </mxCell>
                <mxCell id="222" style="edgeStyle=elbowEdgeStyle;html=1;exitX=0.25;exitY=1;exitDx=0;exitDy=0;entryX=0.366;entryY=-0.026;entryDx=0;entryDy=0;elbow=vertical;rounded=0;curved=0;entryPerimeter=0;" parent="1" source="223" target="250" edge="1">
                    <mxGeometry relative="1" as="geometry"/>
                </mxCell>
                <mxCell id="223" value="" style="shape=table;startSize=0;container=1;collapsible=1;childLayout=tableLayout;fixedRows=1;rowLines=0;fontStyle=0;align=center;resizeLast=1;strokeColor=light-dark(#001DBC,#000000);fillColor=#0050ef;collapsible=0;fontColor=#ffffff;" parent="1" vertex="1">
                    <mxGeometry x="575.5" y="660" width="411" height="60" as="geometry"/>
                </mxCell>
                <mxCell id="224" value="" style="shape=tableRow;horizontal=0;startSize=0;swimlaneHead=0;swimlaneBody=0;fillColor=none;collapsible=0;dropTarget=0;points=[[0,0.5],[1,0.5]];portConstraint=eastwest;top=0;left=0;right=0;bottom=0;" parent="223" vertex="1">
                    <mxGeometry width="411" height="30" as="geometry"/>
                </mxCell>
                <mxCell id="225" value="Fines" style="shape=partialRectangle;connectable=0;fillColor=#f0a30a;top=0;left=0;bottom=0;right=0;editable=1;overflow=hidden;fontStyle=1;strokeColor=#BD7000;fontSize=13;fontColor=#000000;align=center;verticalAlign=middle;fontFamily=Helvetica;" parent="224" vertex="1">
                    <mxGeometry width="80" height="30" as="geometry">
                        <mxRectangle width="80" height="30" as="alternateBounds"/>
                    </mxGeometry>
                </mxCell>
                <mxCell id="226" value="id" style="shape=partialRectangle;connectable=0;fillColor=#0050ef;top=0;left=0;bottom=0;right=0;align=center;spacingLeft=6;overflow=hidden;fontColor=#ffffff;strokeColor=#001DBC;fontStyle=4;" parent="224" vertex="1">
                    <mxGeometry x="80" width="41" height="30" as="geometry">
                        <mxRectangle width="41" height="30" as="alternateBounds"/>
                    </mxGeometry>
                </mxCell>
                <mxCell id="227" value="name" style="shape=partialRectangle;connectable=0;top=0;left=0;bottom=0;right=0;align=center;spacingLeft=6;overflow=hidden;fillColor=#bac8d3;strokeColor=#23445d;" parent="224" vertex="1">
                    <mxGeometry x="121" width="81" height="30" as="geometry">
                        <mxRectangle width="81" height="30" as="alternateBounds"/>
                    </mxGeometry>
                </mxCell>
                <mxCell id="228" value="price" style="shape=partialRectangle;connectable=0;top=0;left=0;bottom=0;right=0;align=center;spacingLeft=6;overflow=hidden;fillColor=#bac8d3;strokeColor=#23445d;verticalAlign=middle;fontFamily=Helvetica;fontSize=12;" parent="224" vertex="1">
                    <mxGeometry x="202" width="60" height="30" as="geometry">
                        <mxRectangle width="60" height="30" as="alternateBounds"/>
                    </mxGeometry>
                </mxCell>
                <mxCell id="229" value="note" style="shape=partialRectangle;connectable=0;top=0;left=0;bottom=0;right=0;align=center;spacingLeft=6;overflow=hidden;fillColor=#bac8d3;strokeColor=#23445d;verticalAlign=middle;fontFamily=Helvetica;fontSize=12;" parent="224" vertex="1">
                    <mxGeometry x="262" width="68" height="30" as="geometry">
                        <mxRectangle width="68" height="30" as="alternateBounds"/>
                    </mxGeometry>
                </mxCell>
                <mxCell id="230" value="date" style="shape=partialRectangle;connectable=0;top=0;left=0;bottom=0;right=0;align=center;spacingLeft=6;overflow=hidden;fillColor=#bac8d3;strokeColor=#23445d;verticalAlign=middle;fontFamily=Helvetica;fontSize=12;" parent="224" vertex="1">
                    <mxGeometry x="330" width="81" height="30" as="geometry">
                        <mxRectangle width="81" height="30" as="alternateBounds"/>
                    </mxGeometry>
                </mxCell>
                <mxCell id="231" style="shape=tableRow;horizontal=0;startSize=0;swimlaneHead=0;swimlaneBody=0;fillColor=none;collapsible=0;dropTarget=0;points=[[0,0.5],[1,0.5]];portConstraint=eastwest;top=0;left=0;right=0;bottom=0;" parent="223" vertex="1">
                    <mxGeometry y="30" width="411" height="30" as="geometry"/>
                </mxCell>
                <mxCell id="232" value="الغرامات" style="shape=partialRectangle;connectable=0;fillColor=#f0a30a;top=0;left=0;bottom=0;right=0;editable=1;overflow=hidden;fontStyle=1;strokeColor=#BD7000;fontSize=13;fontColor=#000000;align=center;verticalAlign=middle;fontFamily=Helvetica;" parent="231" vertex="1">
                    <mxGeometry width="80" height="30" as="geometry">
                        <mxRectangle width="80" height="30" as="alternateBounds"/>
                    </mxGeometry>
                </mxCell>
                <mxCell id="233" value="الرقم" style="shape=partialRectangle;connectable=0;fillColor=#0050ef;top=0;left=0;bottom=0;right=0;align=center;spacingLeft=6;overflow=hidden;fontColor=#ffffff;strokeColor=#001DBC;fontStyle=4;" parent="231" vertex="1">
                    <mxGeometry x="80" width="41" height="30" as="geometry">
                        <mxRectangle width="41" height="30" as="alternateBounds"/>
                    </mxGeometry>
                </mxCell>
                <mxCell id="234" value="اسم الغرامة" style="shape=partialRectangle;connectable=0;top=0;left=0;bottom=0;right=0;align=center;spacingLeft=6;overflow=hidden;fillColor=#bac8d3;strokeColor=#23445d;" parent="231" vertex="1">
                    <mxGeometry x="121" width="81" height="30" as="geometry">
                        <mxRectangle width="81" height="30" as="alternateBounds"/>
                    </mxGeometry>
                </mxCell>
                <mxCell id="235" value="السعر" style="shape=partialRectangle;connectable=0;top=0;left=0;bottom=0;right=0;align=center;spacingLeft=6;overflow=hidden;fillColor=#bac8d3;strokeColor=#23445d;verticalAlign=middle;fontFamily=Helvetica;fontSize=12;" parent="231" vertex="1">
                    <mxGeometry x="202" width="60" height="30" as="geometry">
                        <mxRectangle width="60" height="30" as="alternateBounds"/>
                    </mxGeometry>
                </mxCell>
                <mxCell id="236" value="ملاحظات" style="shape=partialRectangle;connectable=0;top=0;left=0;bottom=0;right=0;align=center;spacingLeft=6;overflow=hidden;fillColor=#bac8d3;strokeColor=#23445d;verticalAlign=middle;fontFamily=Helvetica;fontSize=12;" parent="231" vertex="1">
                    <mxGeometry x="262" width="68" height="30" as="geometry">
                        <mxRectangle width="68" height="30" as="alternateBounds"/>
                    </mxGeometry>
                </mxCell>
                <mxCell id="237" value="التاريخ" style="shape=partialRectangle;connectable=0;top=0;left=0;bottom=0;right=0;align=center;spacingLeft=6;overflow=hidden;fillColor=#bac8d3;strokeColor=#23445d;verticalAlign=middle;fontFamily=Helvetica;fontSize=12;" parent="231" vertex="1">
                    <mxGeometry x="330" width="81" height="30" as="geometry">
                        <mxRectangle width="81" height="30" as="alternateBounds"/>
                    </mxGeometry>
                </mxCell>
                <mxCell id="238" value="" style="shape=table;startSize=0;container=1;collapsible=1;childLayout=tableLayout;fixedRows=1;rowLines=0;fontStyle=0;align=center;resizeLast=1;strokeColor=light-dark(#001DBC,#000000);fillColor=#0050ef;collapsible=0;fontColor=#ffffff;" parent="1" vertex="1">
                    <mxGeometry x="841" y="340" width="297" height="60" as="geometry"/>
                </mxCell>
                <mxCell id="239" value="" style="shape=tableRow;horizontal=0;startSize=0;swimlaneHead=0;swimlaneBody=0;fillColor=none;collapsible=0;dropTarget=0;points=[[0,0.5],[1,0.5]];portConstraint=eastwest;top=0;left=0;right=0;bottom=0;" parent="238" vertex="1">
                    <mxGeometry width="297" height="30" as="geometry"/>
                </mxCell>
                <mxCell id="240" value="ContractsTypes" style="shape=partialRectangle;connectable=0;fillColor=#f0a30a;top=0;left=0;bottom=0;right=0;editable=1;overflow=hidden;fontStyle=1;strokeColor=#BD7000;fontSize=13;fontColor=#000000;align=center;verticalAlign=middle;fontFamily=Helvetica;" parent="239" vertex="1">
                    <mxGeometry width="117" height="30" as="geometry">
                        <mxRectangle width="117" height="30" as="alternateBounds"/>
                    </mxGeometry>
                </mxCell>
                <mxCell id="241" value="id" style="shape=partialRectangle;connectable=0;fillColor=#0050ef;top=0;left=0;bottom=0;right=0;align=center;spacingLeft=6;overflow=hidden;fontColor=#ffffff;strokeColor=#001DBC;fontStyle=4;" parent="239" vertex="1">
                    <mxGeometry x="117" width="40" height="30" as="geometry">
                        <mxRectangle width="40" height="30" as="alternateBounds"/>
                    </mxGeometry>
                </mxCell>
                <mxCell id="242" value="name" style="shape=partialRectangle;connectable=0;top=0;left=0;bottom=0;right=0;align=center;spacingLeft=6;overflow=hidden;fillColor=#bac8d3;strokeColor=#23445d;" parent="239" vertex="1">
                    <mxGeometry x="157" width="60" height="30" as="geometry">
                        <mxRectangle width="60" height="30" as="alternateBounds"/>
                    </mxGeometry>
                </mxCell>
                <mxCell id="243" value="date" style="shape=partialRectangle;connectable=0;top=0;left=0;bottom=0;right=0;align=center;spacingLeft=6;overflow=hidden;fillColor=#bac8d3;strokeColor=#23445d;verticalAlign=middle;fontFamily=Helvetica;fontSize=12;" parent="239" vertex="1">
                    <mxGeometry x="217" width="80" height="30" as="geometry">
                        <mxRectangle width="80" height="30" as="alternateBounds"/>
                    </mxGeometry>
                </mxCell>
                <mxCell id="244" style="shape=tableRow;horizontal=0;startSize=0;swimlaneHead=0;swimlaneBody=0;fillColor=none;collapsible=0;dropTarget=0;points=[[0,0.5],[1,0.5]];portConstraint=eastwest;top=0;left=0;right=0;bottom=0;" parent="238" vertex="1">
                    <mxGeometry y="30" width="297" height="30" as="geometry"/>
                </mxCell>
                <mxCell id="245" value="انواع العقود" style="shape=partialRectangle;connectable=0;fillColor=#f0a30a;top=0;left=0;bottom=0;right=0;editable=1;overflow=hidden;fontStyle=1;strokeColor=#BD7000;fontSize=13;fontColor=#000000;align=center;verticalAlign=middle;fontFamily=Helvetica;" parent="244" vertex="1">
                    <mxGeometry width="117" height="30" as="geometry">
                        <mxRectangle width="117" height="30" as="alternateBounds"/>
                    </mxGeometry>
                </mxCell>
                <mxCell id="246" value="الرقم" style="shape=partialRectangle;connectable=0;fillColor=#0050ef;top=0;left=0;bottom=0;right=0;align=center;spacingLeft=6;overflow=hidden;fontColor=#ffffff;strokeColor=#001DBC;fontStyle=4;" parent="244" vertex="1">
                    <mxGeometry x="117" width="40" height="30" as="geometry">
                        <mxRectangle width="40" height="30" as="alternateBounds"/>
                    </mxGeometry>
                </mxCell>
                <mxCell id="247" value="الاسم" style="shape=partialRectangle;connectable=0;top=0;left=0;bottom=0;right=0;align=center;spacingLeft=6;overflow=hidden;fillColor=#bac8d3;strokeColor=#23445d;" parent="244" vertex="1">
                    <mxGeometry x="157" width="60" height="30" as="geometry">
                        <mxRectangle width="60" height="30" as="alternateBounds"/>
                    </mxGeometry>
                </mxCell>
                <mxCell id="248" value="التاريخ" style="shape=partialRectangle;connectable=0;top=0;left=0;bottom=0;right=0;align=center;spacingLeft=6;overflow=hidden;fillColor=#bac8d3;strokeColor=#23445d;verticalAlign=middle;fontFamily=Helvetica;fontSize=12;" parent="244" vertex="1">
                    <mxGeometry x="217" width="80" height="30" as="geometry">
                        <mxRectangle width="80" height="30" as="alternateBounds"/>
                    </mxGeometry>
                </mxCell>
                <mxCell id="249" value="" style="shape=table;startSize=0;container=1;collapsible=1;childLayout=tableLayout;fixedRows=1;rowLines=0;fontStyle=0;align=center;resizeLast=1;strokeColor=light-dark(#001DBC,#000000);fillColor=#0050ef;collapsible=0;fontColor=#ffffff;" parent="1" vertex="1">
                    <mxGeometry x="787" y="770" width="544" height="60" as="geometry"/>
                </mxCell>
                <mxCell id="250" value="" style="shape=tableRow;horizontal=0;startSize=0;swimlaneHead=0;swimlaneBody=0;fillColor=none;collapsible=0;dropTarget=0;points=[[0,0.5],[1,0.5]];portConstraint=eastwest;top=0;left=0;right=0;bottom=0;" parent="249" vertex="1">
                    <mxGeometry width="544" height="30" as="geometry"/>
                </mxCell>
                <mxCell id="251" value="SubscriberFines" style="shape=partialRectangle;connectable=0;fillColor=#f0a30a;top=0;left=0;bottom=0;right=0;editable=1;overflow=hidden;fontStyle=1;strokeColor=#BD7000;fontSize=13;fontColor=#000000;align=center;verticalAlign=middle;fontFamily=Helvetica;" parent="250" vertex="1">
                    <mxGeometry width="109" height="30" as="geometry">
                        <mxRectangle width="109" height="30" as="alternateBounds"/>
                    </mxGeometry>
                </mxCell>
                <mxCell id="252" value="id" style="shape=partialRectangle;connectable=0;fillColor=#0050ef;top=0;left=0;bottom=0;right=0;align=center;spacingLeft=6;overflow=hidden;fontColor=#ffffff;strokeColor=#001DBC;fontStyle=4;" parent="250" vertex="1">
                    <mxGeometry x="109" width="45" height="30" as="geometry">
                        <mxRectangle width="45" height="30" as="alternateBounds"/>
                    </mxGeometry>
                </mxCell>
                <mxCell id="253" value="fine_id" style="shape=partialRectangle;connectable=0;top=0;left=0;bottom=0;right=0;align=center;spacingLeft=6;overflow=hidden;fillColor=#647687;fontColor=#ffffff;strokeColor=#314354;" parent="250" vertex="1">
                    <mxGeometry x="154" width="85" height="30" as="geometry">
                        <mxRectangle width="85" height="30" as="alternateBounds"/>
                    </mxGeometry>
                </mxCell>
                <mxCell id="254" value="subscriber_id" style="shape=partialRectangle;connectable=0;top=0;left=0;bottom=0;right=0;align=center;spacingLeft=6;overflow=hidden;fillColor=#647687;fontColor=#ffffff;strokeColor=#314354;verticalAlign=middle;fontFamily=Helvetica;fontSize=12;" parent="250" vertex="1">
                    <mxGeometry x="239" width="80" height="30" as="geometry">
                        <mxRectangle width="80" height="30" as="alternateBounds"/>
                    </mxGeometry>
                </mxCell>
                <mxCell id="255" value="status" style="shape=partialRectangle;connectable=0;top=0;left=0;bottom=0;right=0;align=center;spacingLeft=6;overflow=hidden;fillColor=#bac8d3;strokeColor=#23445d;verticalAlign=middle;fontFamily=Helvetica;fontSize=12;" parent="250" vertex="1">
                    <mxGeometry x="319" width="80" height="30" as="geometry">
                        <mxRectangle width="80" height="30" as="alternateBounds"/>
                    </mxGeometry>
                </mxCell>
                <mxCell id="256" value="note" style="shape=partialRectangle;connectable=0;top=0;left=0;bottom=0;right=0;align=center;spacingLeft=6;overflow=hidden;fillColor=#bac8d3;strokeColor=#23445d;verticalAlign=middle;fontFamily=Helvetica;fontSize=12;" parent="250" vertex="1">
                    <mxGeometry x="399" width="70" height="30" as="geometry">
                        <mxRectangle width="70" height="30" as="alternateBounds"/>
                    </mxGeometry>
                </mxCell>
                <mxCell id="257" value="date" style="shape=partialRectangle;connectable=0;top=0;left=0;bottom=0;right=0;align=center;spacingLeft=6;overflow=hidden;fillColor=#bac8d3;strokeColor=#23445d;verticalAlign=middle;fontFamily=Helvetica;fontSize=12;" parent="250" vertex="1">
                    <mxGeometry x="469" width="75" height="30" as="geometry">
                        <mxRectangle width="75" height="30" as="alternateBounds"/>
                    </mxGeometry>
                </mxCell>
                <mxCell id="258" style="shape=tableRow;horizontal=0;startSize=0;swimlaneHead=0;swimlaneBody=0;fillColor=none;collapsible=0;dropTarget=0;points=[[0,0.5],[1,0.5]];portConstraint=eastwest;top=0;left=0;right=0;bottom=0;" parent="249" vertex="1">
                    <mxGeometry y="30" width="544" height="30" as="geometry"/>
                </mxCell>
                <mxCell id="259" value="غرامات المشتركين" style="shape=partialRectangle;connectable=0;fillColor=#f0a30a;top=0;left=0;bottom=0;right=0;editable=1;overflow=hidden;fontStyle=1;strokeColor=#BD7000;fontSize=13;fontColor=#000000;align=center;verticalAlign=middle;fontFamily=Helvetica;" parent="258" vertex="1">
                    <mxGeometry width="109" height="30" as="geometry">
                        <mxRectangle width="109" height="30" as="alternateBounds"/>
                    </mxGeometry>
                </mxCell>
                <mxCell id="260" value="الرقم" style="shape=partialRectangle;connectable=0;fillColor=#0050ef;top=0;left=0;bottom=0;right=0;align=center;spacingLeft=6;overflow=hidden;fontColor=#ffffff;strokeColor=#001DBC;fontStyle=4;" parent="258" vertex="1">
                    <mxGeometry x="109" width="45" height="30" as="geometry">
                        <mxRectangle width="45" height="30" as="alternateBounds"/>
                    </mxGeometry>
                </mxCell>
                <mxCell id="261" value="رقم الغرامة" style="shape=partialRectangle;connectable=0;top=0;left=0;bottom=0;right=0;align=center;spacingLeft=6;overflow=hidden;fillColor=#647687;fontColor=#ffffff;strokeColor=#314354;" parent="258" vertex="1">
                    <mxGeometry x="154" width="85" height="30" as="geometry">
                        <mxRectangle width="85" height="30" as="alternateBounds"/>
                    </mxGeometry>
                </mxCell>
                <mxCell id="262" value="رقم المشترك" style="shape=partialRectangle;connectable=0;top=0;left=0;bottom=0;right=0;align=center;spacingLeft=6;overflow=hidden;fillColor=#647687;fontColor=#ffffff;strokeColor=#314354;verticalAlign=middle;fontFamily=Helvetica;fontSize=12;" parent="258" vertex="1">
                    <mxGeometry x="239" width="80" height="30" as="geometry">
                        <mxRectangle width="80" height="30" as="alternateBounds"/>
                    </mxGeometry>
                </mxCell>
                <mxCell id="263" value="الحالة" style="shape=partialRectangle;connectable=0;top=0;left=0;bottom=0;right=0;align=center;spacingLeft=6;overflow=hidden;fillColor=#bac8d3;strokeColor=#23445d;verticalAlign=middle;fontFamily=Helvetica;fontSize=12;" parent="258" vertex="1">
                    <mxGeometry x="319" width="80" height="30" as="geometry">
                        <mxRectangle width="80" height="30" as="alternateBounds"/>
                    </mxGeometry>
                </mxCell>
                <mxCell id="264" value="ملاحظة" style="shape=partialRectangle;connectable=0;top=0;left=0;bottom=0;right=0;align=center;spacingLeft=6;overflow=hidden;fillColor=#bac8d3;strokeColor=#23445d;verticalAlign=middle;fontFamily=Helvetica;fontSize=12;" parent="258" vertex="1">
                    <mxGeometry x="399" width="70" height="30" as="geometry">
                        <mxRectangle width="70" height="30" as="alternateBounds"/>
                    </mxGeometry>
                </mxCell>
                <mxCell id="265" value="التاريخ" style="shape=partialRectangle;connectable=0;top=0;left=0;bottom=0;right=0;align=center;spacingLeft=6;overflow=hidden;fillColor=#bac8d3;strokeColor=#23445d;verticalAlign=middle;fontFamily=Helvetica;fontSize=12;" parent="258" vertex="1">
                    <mxGeometry x="469" width="75" height="30" as="geometry">
                        <mxRectangle width="75" height="30" as="alternateBounds"/>
                    </mxGeometry>
                </mxCell>
                <mxCell id="266" style="edgeStyle=elbowEdgeStyle;html=1;entryX=0.299;entryY=-0.067;entryDx=0;entryDy=0;elbow=vertical;rounded=0;curved=0;exitX=0.33;exitY=1.017;exitDx=0;exitDy=0;exitPerimeter=0;entryPerimeter=0;" parent="1" source="79" target="204" edge="1">
                    <mxGeometry relative="1" as="geometry">
                        <Array as="points">
                            <mxPoint x="1160" y="630"/>
                        </Array>
                        <mxPoint x="690" y="541" as="sourcePoint"/>
                    </mxGeometry>
                </mxCell>
                <mxCell id="267" style="edgeStyle=elbowEdgeStyle;html=1;exitX=0.153;exitY=1.061;exitDx=0;exitDy=0;entryX=0.237;entryY=-0.067;entryDx=0;entryDy=0;entryPerimeter=0;elbow=vertical;rounded=0;curved=0;exitPerimeter=0;" parent="1" source="128" target="164" edge="1">
                    <mxGeometry relative="1" as="geometry">
                        <Array as="points">
                            <mxPoint x="310" y="732"/>
                        </Array>
                    </mxGeometry>
                </mxCell>
                <mxCell id="268" style="edgeStyle=elbowEdgeStyle;rounded=0;orthogonalLoop=1;jettySize=auto;html=1;entryX=0.339;entryY=-0.039;entryDx=0;entryDy=0;entryPerimeter=0;elbow=vertical;exitX=0.177;exitY=1.043;exitDx=0;exitDy=0;exitPerimeter=0;" parent="1" source="128" target="66" edge="1">
                    <mxGeometry relative="1" as="geometry">
                        <mxPoint x="170" y="632" as="sourcePoint"/>
                    </mxGeometry>
                </mxCell>
                <mxCell id="269" style="edgeStyle=elbowEdgeStyle;html=1;entryX=0.821;entryY=-0.067;entryDx=0;entryDy=0;entryPerimeter=0;rounded=0;elbow=vertical;exitX=0.46;exitY=0.037;exitDx=0;exitDy=0;exitPerimeter=0;" parent="1" source="239" target="97" edge="1">
                    <mxGeometry relative="1" as="geometry">
                        <mxPoint x="980" y="300" as="sourcePoint"/>
                        <Array as="points">
                            <mxPoint x="850" y="320"/>
                        </Array>
                    </mxGeometry>
                </mxCell>
                <mxCell id="270" style="edgeStyle=elbowEdgeStyle;html=1;rounded=0;elbow=vertical;entryX=0.557;entryY=-0.032;entryDx=0;entryDy=0;entryPerimeter=0;exitX=0.25;exitY=1;exitDx=0;exitDy=0;" parent="1" source="2" target="34" edge="1">
                    <mxGeometry relative="1" as="geometry">
                        <mxPoint x="260" y="232" as="targetPoint"/>
                        <mxPoint x="150" y="130" as="sourcePoint"/>
                    </mxGeometry>
                </mxCell>
                <mxCell id="271" style="edgeStyle=elbowEdgeStyle;shape=connector;rounded=0;elbow=vertical;html=1;exitX=0.217;exitY=0.938;exitDx=0;exitDy=0;strokeColor=default;align=center;verticalAlign=middle;fontFamily=Helvetica;fontSize=11;fontColor=default;labelBackgroundColor=default;endArrow=classic;entryX=0.75;entryY=0;entryDx=0;entryDy=0;exitPerimeter=0;" parent="1" source="27" target="34" edge="1">
                    <mxGeometry relative="1" as="geometry">
                        <mxPoint x="320" y="222" as="targetPoint"/>
                    </mxGeometry>
                </mxCell>
                <mxCell id="272" style="edgeStyle=elbowEdgeStyle;shape=connector;rounded=0;elbow=vertical;html=1;strokeColor=default;align=center;verticalAlign=middle;fontFamily=Helvetica;fontSize=11;fontColor=default;labelBackgroundColor=default;endArrow=classic;exitX=0.225;exitY=1.067;exitDx=0;exitDy=0;exitPerimeter=0;entryX=0.448;entryY=0.033;entryDx=0;entryDy=0;entryPerimeter=0;" parent="1" source="163" target="312" edge="1">
                    <mxGeometry relative="1" as="geometry">
                        <Array as="points">
                            <mxPoint x="530" y="850"/>
                        </Array>
                        <mxPoint x="460" y="820" as="sourcePoint"/>
                        <mxPoint x="744" y="950" as="targetPoint"/>
                    </mxGeometry>
                </mxCell>
                <mxCell id="273" style="edgeStyle=elbowEdgeStyle;html=1;exitX=0.284;exitY=1.05;exitDx=0;exitDy=0;entryX=0.521;entryY=0.033;entryDx=0;entryDy=0;entryPerimeter=0;elbow=vertical;rounded=0;curved=0;exitPerimeter=0;" parent="1" source="113" target="20" edge="1">
                    <mxGeometry relative="1" as="geometry"/>
                </mxCell>
                <mxCell id="274" value="" style="shape=table;startSize=0;container=1;collapsible=1;childLayout=tableLayout;fixedRows=1;rowLines=0;fontStyle=0;align=center;resizeLast=1;strokeColor=light-dark(#001DBC,#000000);fillColor=#0050ef;collapsible=0;fontColor=#ffffff;" parent="1" vertex="1">
                    <mxGeometry x="850" y="122" width="769.5" height="60" as="geometry"/>
                </mxCell>
                <mxCell id="275" value="" style="shape=tableRow;horizontal=0;startSize=0;swimlaneHead=0;swimlaneBody=0;fillColor=none;collapsible=0;dropTarget=0;points=[[0,0.5],[1,0.5]];portConstraint=eastwest;top=0;left=0;right=0;bottom=0;" parent="274" vertex="1">
                    <mxGeometry width="769.5" height="30" as="geometry"/>
                </mxCell>
                <mxCell id="276" value="CentralMeterLogs" style="shape=partialRectangle;connectable=0;fillColor=#f0a30a;top=0;left=0;bottom=0;right=0;editable=1;overflow=hidden;fontStyle=1;strokeColor=#BD7000;fontSize=13;fontColor=#000000;align=center;verticalAlign=middle;fontFamily=Helvetica;" parent="275" vertex="1">
                    <mxGeometry width="129.5" height="30" as="geometry">
                        <mxRectangle width="129.5" height="30" as="alternateBounds"/>
                    </mxGeometry>
                </mxCell>
                <mxCell id="277" value="id" style="shape=partialRectangle;connectable=0;fillColor=#0050ef;top=0;left=0;bottom=0;right=0;align=center;spacingLeft=6;overflow=hidden;fontColor=#ffffff;strokeColor=#001DBC;fontStyle=4;" parent="275" vertex="1">
                    <mxGeometry x="129.5" width="50.5" height="30" as="geometry">
                        <mxRectangle width="50.5" height="30" as="alternateBounds"/>
                    </mxGeometry>
                </mxCell>
                <mxCell id="278" value="central_meter_id" style="shape=partialRectangle;connectable=0;top=0;left=0;bottom=0;right=0;align=center;spacingLeft=6;overflow=hidden;fillColor=#647687;strokeColor=#314354;verticalAlign=middle;fontFamily=Helvetica;fontSize=12;fontColor=#ffffff;" parent="275" vertex="1">
                    <mxGeometry x="180" width="109.5" height="30" as="geometry">
                        <mxRectangle width="109.5" height="30" as="alternateBounds"/>
                    </mxGeometry>
                </mxCell>
                <mxCell id="279" value="last_read" style="shape=partialRectangle;connectable=0;top=0;left=0;bottom=0;right=0;align=center;spacingLeft=6;overflow=hidden;fillColor=#bac8d3;strokeColor=#23445d;verticalAlign=middle;fontFamily=Helvetica;fontSize=12;" parent="275" vertex="1">
                    <mxGeometry x="289.5" width="80" height="30" as="geometry">
                        <mxRectangle width="80" height="30" as="alternateBounds"/>
                    </mxGeometry>
                </mxCell>
                <mxCell id="280" value="new_read" style="shape=partialRectangle;connectable=0;top=0;left=0;bottom=0;right=0;align=center;spacingLeft=6;overflow=hidden;fillColor=#bac8d3;strokeColor=#23445d;verticalAlign=middle;fontFamily=Helvetica;fontSize=12;" parent="275" vertex="1">
                    <mxGeometry x="369.5" width="80" height="30" as="geometry">
                        <mxRectangle width="80" height="30" as="alternateBounds"/>
                    </mxGeometry>
                </mxCell>
                <mxCell id="281" value="from_date" style="shape=partialRectangle;connectable=0;top=0;left=0;bottom=0;right=0;align=center;spacingLeft=6;overflow=hidden;fillColor=#bac8d3;strokeColor=#23445d;verticalAlign=middle;fontFamily=Helvetica;fontSize=12;" parent="275" vertex="1">
                    <mxGeometry x="449.5" width="80" height="30" as="geometry">
                        <mxRectangle width="80" height="30" as="alternateBounds"/>
                    </mxGeometry>
                </mxCell>
                <mxCell id="282" value="to_date" style="shape=partialRectangle;connectable=0;top=0;left=0;bottom=0;right=0;align=center;spacingLeft=6;overflow=hidden;fillColor=#bac8d3;strokeColor=#23445d;verticalAlign=middle;fontFamily=Helvetica;fontSize=12;" parent="275" vertex="1">
                    <mxGeometry x="529.5" width="80" height="30" as="geometry">
                        <mxRectangle width="80" height="30" as="alternateBounds"/>
                    </mxGeometry>
                </mxCell>
                <mxCell id="283" value="note" style="shape=partialRectangle;connectable=0;top=0;left=0;bottom=0;right=0;align=center;spacingLeft=6;overflow=hidden;fillColor=#bac8d3;strokeColor=#23445d;verticalAlign=middle;fontFamily=Helvetica;fontSize=12;" parent="275" vertex="1">
                    <mxGeometry x="609.5" width="80" height="30" as="geometry">
                        <mxRectangle width="80" height="30" as="alternateBounds"/>
                    </mxGeometry>
                </mxCell>
                <mxCell id="284" value="date" style="shape=partialRectangle;connectable=0;top=0;left=0;bottom=0;right=0;align=center;spacingLeft=6;overflow=hidden;fillColor=#bac8d3;strokeColor=#23445d;verticalAlign=middle;fontFamily=Helvetica;fontSize=12;" parent="275" vertex="1">
                    <mxGeometry x="689.5" width="80" height="30" as="geometry">
                        <mxRectangle width="80" height="30" as="alternateBounds"/>
                    </mxGeometry>
                </mxCell>
                <mxCell id="285" style="shape=tableRow;horizontal=0;startSize=0;swimlaneHead=0;swimlaneBody=0;fillColor=none;collapsible=0;dropTarget=0;points=[[0,0.5],[1,0.5]];portConstraint=eastwest;top=0;left=0;right=0;bottom=0;" parent="274" vertex="1">
                    <mxGeometry y="30" width="769.5" height="30" as="geometry"/>
                </mxCell>
                <mxCell id="286" value="سجلات العدادات المركزية" style="shape=partialRectangle;connectable=0;fillColor=#f0a30a;top=0;left=0;bottom=0;right=0;editable=1;overflow=hidden;fontStyle=1;strokeColor=#BD7000;fontSize=13;fontColor=#000000;align=center;verticalAlign=middle;fontFamily=Helvetica;" parent="285" vertex="1">
                    <mxGeometry width="129.5" height="30" as="geometry">
                        <mxRectangle width="129.5" height="30" as="alternateBounds"/>
                    </mxGeometry>
                </mxCell>
                <mxCell id="287" value="الرقم" style="shape=partialRectangle;connectable=0;fillColor=#0050ef;top=0;left=0;bottom=0;right=0;align=center;spacingLeft=6;overflow=hidden;fontColor=#ffffff;strokeColor=#001DBC;fontStyle=4;" parent="285" vertex="1">
                    <mxGeometry x="129.5" width="50.5" height="30" as="geometry">
                        <mxRectangle width="50.5" height="30" as="alternateBounds"/>
                    </mxGeometry>
                </mxCell>
                <mxCell id="288" value="رقم العداد المركزي" style="shape=partialRectangle;connectable=0;top=0;left=0;bottom=0;right=0;align=center;spacingLeft=6;overflow=hidden;fillColor=#647687;strokeColor=#314354;verticalAlign=middle;fontFamily=Helvetica;fontSize=12;fontColor=#ffffff;" parent="285" vertex="1">
                    <mxGeometry x="180" width="109.5" height="30" as="geometry">
                        <mxRectangle width="109.5" height="30" as="alternateBounds"/>
                    </mxGeometry>
                </mxCell>
                <mxCell id="289" value="القراءة السابقة" style="shape=partialRectangle;connectable=0;top=0;left=0;bottom=0;right=0;align=center;spacingLeft=6;overflow=hidden;fillColor=#bac8d3;strokeColor=#23445d;verticalAlign=middle;fontFamily=Helvetica;fontSize=12;" parent="285" vertex="1">
                    <mxGeometry x="289.5" width="80" height="30" as="geometry">
                        <mxRectangle width="80" height="30" as="alternateBounds"/>
                    </mxGeometry>
                </mxCell>
                <mxCell id="290" value="القراءة الحالية" style="shape=partialRectangle;connectable=0;top=0;left=0;bottom=0;right=0;align=center;spacingLeft=6;overflow=hidden;fillColor=#bac8d3;strokeColor=#23445d;verticalAlign=middle;fontFamily=Helvetica;fontSize=12;" parent="285" vertex="1">
                    <mxGeometry x="369.5" width="80" height="30" as="geometry">
                        <mxRectangle width="80" height="30" as="alternateBounds"/>
                    </mxGeometry>
                </mxCell>
                <mxCell id="291" value="من تاريخ" style="shape=partialRectangle;connectable=0;top=0;left=0;bottom=0;right=0;align=center;spacingLeft=6;overflow=hidden;fillColor=#bac8d3;strokeColor=#23445d;verticalAlign=middle;fontFamily=Helvetica;fontSize=12;" parent="285" vertex="1">
                    <mxGeometry x="449.5" width="80" height="30" as="geometry">
                        <mxRectangle width="80" height="30" as="alternateBounds"/>
                    </mxGeometry>
                </mxCell>
                <mxCell id="292" value="الى تاريخ" style="shape=partialRectangle;connectable=0;top=0;left=0;bottom=0;right=0;align=center;spacingLeft=6;overflow=hidden;fillColor=#bac8d3;strokeColor=#23445d;verticalAlign=middle;fontFamily=Helvetica;fontSize=12;" parent="285" vertex="1">
                    <mxGeometry x="529.5" width="80" height="30" as="geometry">
                        <mxRectangle width="80" height="30" as="alternateBounds"/>
                    </mxGeometry>
                </mxCell>
                <mxCell id="293" value="ملاحظة" style="shape=partialRectangle;connectable=0;top=0;left=0;bottom=0;right=0;align=center;spacingLeft=6;overflow=hidden;fillColor=#bac8d3;strokeColor=#23445d;verticalAlign=middle;fontFamily=Helvetica;fontSize=12;" parent="285" vertex="1">
                    <mxGeometry x="609.5" width="80" height="30" as="geometry">
                        <mxRectangle width="80" height="30" as="alternateBounds"/>
                    </mxGeometry>
                </mxCell>
                <mxCell id="294" value="تاريخ الادخال" style="shape=partialRectangle;connectable=0;top=0;left=0;bottom=0;right=0;align=center;spacingLeft=6;overflow=hidden;fillColor=#bac8d3;strokeColor=#23445d;verticalAlign=middle;fontFamily=Helvetica;fontSize=12;" parent="285" vertex="1">
                    <mxGeometry x="689.5" width="80" height="30" as="geometry">
                        <mxRectangle width="80" height="30" as="alternateBounds"/>
                    </mxGeometry>
                </mxCell>
                <mxCell id="295" style="edgeStyle=elbowEdgeStyle;html=1;exitX=0.354;exitY=1;exitDx=0;exitDy=0;entryX=0.301;entryY=-0.05;entryDx=0;entryDy=0;entryPerimeter=0;rounded=0;elbow=vertical;exitPerimeter=0;" parent="1" source="113" target="274" edge="1">
                    <mxGeometry relative="1" as="geometry"/>
                </mxCell>
                <mxCell id="307" style="edgeStyle=elbowEdgeStyle;html=1;exitX=0.289;exitY=0.975;exitDx=0;exitDy=0;entryX=0.501;entryY=-0.061;entryDx=0;entryDy=0;entryPerimeter=0;elbow=vertical;rounded=0;curved=0;exitPerimeter=0;" parent="1" source="88" target="250" edge="1">
                    <mxGeometry relative="1" as="geometry">
                        <Array as="points">
                            <mxPoint x="1000" y="650"/>
                        </Array>
                    </mxGeometry>
                </mxCell>
                <mxCell id="308" style="edgeStyle=none;html=1;exitX=0.25;exitY=1;exitDx=0;exitDy=0;entryX=0.55;entryY=-0.011;entryDx=0;entryDy=0;entryPerimeter=0;" parent="1" source="96" target="128" edge="1">
                    <mxGeometry relative="1" as="geometry"/>
                </mxCell>
                <mxCell id="309" style="edgeStyle=none;html=1;exitX=0.346;exitY=1.032;exitDx=0;exitDy=0;entryX=0.739;entryY=0.009;entryDx=0;entryDy=0;entryPerimeter=0;exitPerimeter=0;" parent="1" source="154" target="128" edge="1">
                    <mxGeometry relative="1" as="geometry"/>
                </mxCell>
                <mxCell id="310" style="edgeStyle=elbowEdgeStyle;html=1;exitX=0.202;exitY=1.035;exitDx=0;exitDy=0;entryX=0.47;entryY=0.033;entryDx=0;entryDy=0;entryPerimeter=0;exitPerimeter=0;rounded=0;elbow=vertical;" parent="1" source="195" target="204" edge="1">
                    <mxGeometry relative="1" as="geometry">
                        <Array as="points">
                            <mxPoint x="1390" y="610"/>
                        </Array>
                    </mxGeometry>
                </mxCell>
                <mxCell id="311" value="" style="shape=table;startSize=0;container=1;collapsible=1;childLayout=tableLayout;fixedRows=1;rowLines=0;fontStyle=0;align=center;resizeLast=1;strokeColor=light-dark(#001DBC,#000000);fillColor=#0050ef;collapsible=0;fontColor=#ffffff;" parent="1" vertex="1">
                    <mxGeometry x="441" y="980" width="330" height="60" as="geometry"/>
                </mxCell>
                <mxCell id="312" value="" style="shape=tableRow;horizontal=0;startSize=0;swimlaneHead=0;swimlaneBody=0;fillColor=none;collapsible=0;dropTarget=0;points=[[0,0.5],[1,0.5]];portConstraint=eastwest;top=0;left=0;right=0;bottom=0;" parent="311" vertex="1">
                    <mxGeometry width="330" height="30" as="geometry"/>
                </mxCell>
                <mxCell id="313" value="Payments" style="shape=partialRectangle;connectable=0;fillColor=#f0a30a;top=0;left=0;bottom=0;right=0;editable=1;overflow=hidden;fontStyle=1;strokeColor=#BD7000;fontSize=13;fontColor=#000000;align=center;verticalAlign=middle;fontFamily=Helvetica;" parent="312" vertex="1">
                    <mxGeometry width="80" height="30" as="geometry">
                        <mxRectangle width="80" height="30" as="alternateBounds"/>
                    </mxGeometry>
                </mxCell>
                <mxCell id="314" value="id" style="shape=partialRectangle;connectable=0;fillColor=#0050ef;top=0;left=0;bottom=0;right=0;align=center;spacingLeft=6;overflow=hidden;fontColor=#ffffff;strokeColor=#001DBC;fontStyle=4;" parent="312" vertex="1">
                    <mxGeometry x="80" width="30" height="30" as="geometry">
                        <mxRectangle width="30" height="30" as="alternateBounds"/>
                    </mxGeometry>
                </mxCell>
                <mxCell id="315" value="invoice_id" style="shape=partialRectangle;connectable=0;top=0;left=0;bottom=0;right=0;align=center;spacingLeft=6;overflow=hidden;fillColor=#647687;strokeColor=#314354;fontColor=#ffffff;" parent="312" vertex="1">
                    <mxGeometry x="110" width="90" height="30" as="geometry">
                        <mxRectangle width="90" height="30" as="alternateBounds"/>
                    </mxGeometry>
                </mxCell>
                <mxCell id="316" value="paid" style="shape=partialRectangle;connectable=0;top=0;left=0;bottom=0;right=0;align=center;spacingLeft=6;overflow=hidden;fillColor=#bac8d3;strokeColor=#23445d;verticalAlign=middle;fontFamily=Helvetica;fontSize=12;" parent="312" vertex="1">
                    <mxGeometry x="200" width="60" height="30" as="geometry">
                        <mxRectangle width="60" height="30" as="alternateBounds"/>
                    </mxGeometry>
                </mxCell>
                <mxCell id="317" value="date" style="shape=partialRectangle;connectable=0;top=0;left=0;bottom=0;right=0;align=center;spacingLeft=6;overflow=hidden;fillColor=#bac8d3;strokeColor=#23445d;verticalAlign=middle;fontFamily=Helvetica;fontSize=12;" parent="312" vertex="1">
                    <mxGeometry x="260" width="70" height="30" as="geometry">
                        <mxRectangle width="70" height="30" as="alternateBounds"/>
                    </mxGeometry>
                </mxCell>
                <mxCell id="318" style="shape=tableRow;horizontal=0;startSize=0;swimlaneHead=0;swimlaneBody=0;fillColor=none;collapsible=0;dropTarget=0;points=[[0,0.5],[1,0.5]];portConstraint=eastwest;top=0;left=0;right=0;bottom=0;" parent="311" vertex="1">
                    <mxGeometry y="30" width="330" height="30" as="geometry"/>
                </mxCell>
                <mxCell id="319" value="المدفوعات" style="shape=partialRectangle;connectable=0;fillColor=#f0a30a;top=0;left=0;bottom=0;right=0;editable=1;overflow=hidden;fontStyle=1;strokeColor=#BD7000;fontSize=13;fontColor=#000000;align=center;verticalAlign=middle;fontFamily=Helvetica;" parent="318" vertex="1">
                    <mxGeometry width="80" height="30" as="geometry">
                        <mxRectangle width="80" height="30" as="alternateBounds"/>
                    </mxGeometry>
                </mxCell>
                <mxCell id="320" value="الرقم" style="shape=partialRectangle;connectable=0;fillColor=#0050ef;top=0;left=0;bottom=0;right=0;align=center;spacingLeft=6;overflow=hidden;fontColor=#ffffff;strokeColor=#001DBC;fontStyle=4;" parent="318" vertex="1">
                    <mxGeometry x="80" width="30" height="30" as="geometry">
                        <mxRectangle width="30" height="30" as="alternateBounds"/>
                    </mxGeometry>
                </mxCell>
                <mxCell id="321" value="رقم الفاتورة" style="shape=partialRectangle;connectable=0;top=0;left=0;bottom=0;right=0;align=center;spacingLeft=6;overflow=hidden;fillColor=#647687;strokeColor=#314354;fontColor=#ffffff;" parent="318" vertex="1">
                    <mxGeometry x="110" width="90" height="30" as="geometry">
                        <mxRectangle width="90" height="30" as="alternateBounds"/>
                    </mxGeometry>
                </mxCell>
                <mxCell id="322" value="المدفوع" style="shape=partialRectangle;connectable=0;top=0;left=0;bottom=0;right=0;align=center;spacingLeft=6;overflow=hidden;fillColor=#bac8d3;strokeColor=#23445d;verticalAlign=middle;fontFamily=Helvetica;fontSize=12;" parent="318" vertex="1">
                    <mxGeometry x="200" width="60" height="30" as="geometry">
                        <mxRectangle width="60" height="30" as="alternateBounds"/>
                    </mxGeometry>
                </mxCell>
                <mxCell id="323" value="التاريخ" style="shape=partialRectangle;connectable=0;top=0;left=0;bottom=0;right=0;align=center;spacingLeft=6;overflow=hidden;fillColor=#bac8d3;strokeColor=#23445d;verticalAlign=middle;fontFamily=Helvetica;fontSize=12;" parent="318" vertex="1">
                    <mxGeometry x="260" width="70" height="30" as="geometry">
                        <mxRectangle width="70" height="30" as="alternateBounds"/>
                    </mxGeometry>
                </mxCell>
            </root>
        </mxGraphModel>
    </diagram>
</mxfile>